<?xml version="1.0" encoding="utf-8"?>
<!-- Generator: Adobe Illustrator 22.1.0, SVG Export Plug-In . SVG Version: 6.00 Build 0)  -->
<svg version="1.1" id="Calque_1" xmlns="http://www.w3.org/2000/svg" xmlns:xlink="http://www.w3.org/1999/xlink" x="0px" y="0px"
	 viewBox="0 0 410.2 194.9" style="enable-background:new 0 0 410.2 194.9;" xml:space="preserve">
<style type="text/css">
	.st0{fill:#82368C;}
	.st1{fill:#FFFFFF;}
</style>
<g>
	<g>
		<g>
			<path class="st0" d="M202.2,69.7h13.4v6h-20.5V37.2h7.2V69.7z"/>
			<path class="st0" d="M237.4,67.5h-9.7l-2,8.2h-7.2l10.3-38.5h7.4l10.3,38.5h-7.2L237.4,67.5z M229.2,61.5h6.7l-3.3-13.6h-0.2
				L229.2,61.5z"/>
			<path class="st0" d="M250.7,75.7V37.2h10.8c3.8,0,6.7,0.9,8.8,2.6c2.1,1.8,3.2,4.4,3.2,7.9c0,1.8-0.4,3.5-1.2,4.9
				c-0.8,1.4-1.9,2.5-3.5,3.2c1.9,0.5,3.4,1.5,4.3,3.1c0.9,1.6,1.4,3.4,1.4,5.6c0,3.7-1,6.5-3,8.4c-2,1.9-4.9,2.9-8.6,2.9H250.7z
				 M257.9,53.5h3.9c1.5,0,2.6-0.5,3.4-1.3c0.8-0.9,1.2-2.1,1.2-3.7c0-1.8-0.4-3.1-1.2-4c-0.8-0.8-2-1.3-3.6-1.3h-3.6V53.5z
				 M257.9,58.7v11h5.1c1.5,0,2.6-0.4,3.4-1.3s1.1-2.2,1.1-3.9c0-1.8-0.3-3.2-1-4.2c-0.6-1-1.7-1.5-3.1-1.5H257.9z"/>
			<path class="st0" d="M328.8,50.7h0.2l5-13.5h8.3l-8.9,19.1l9.5,19.4h-8.6L329,62h-0.2l-5.1,13.8h-8.3l9.1-19.4l-8.9-19.1h8.2
				L328.8,50.7z"/>
			<path class="st0" d="M218,115.5l0.1,0.2c0,4.2-0.9,7.4-2.9,9.6c-1.9,2.2-4.8,3.2-8.6,3.2c-3.8,0-6.8-1.2-9.1-3.7
				c-2.3-2.4-3.4-5.9-3.4-10.4v-11.5c0-4.5,1.1-7.9,3.3-10.4s5.1-3.7,8.8-3.7c3.9,0,6.8,1.1,8.8,3.3c2,2.2,3,5.4,3.1,9.7l-0.1,0.2
				h-6.9c0.1-2.5-0.2-4.4-1-5.5c-0.8-1.1-2.1-1.7-3.9-1.7c-1.6,0-2.8,0.7-3.7,2c-0.9,1.3-1.3,3.3-1.3,6v11.6c0,2.7,0.5,4.7,1.4,6.1
				c0.9,1.3,2.3,2,4,2c1.7,0,2.9-0.5,3.6-1.6c0.7-1,1-2.8,0.9-5.4H218z"/>
			<path class="st0" d="M248.4,114.1c0,4.5-1.2,8-3.5,10.6c-2.3,2.5-5.4,3.8-9.3,3.8c-3.9,0-7-1.3-9.3-3.8
				c-2.3-2.5-3.5-6.1-3.5-10.6v-10.8c0-4.5,1.2-8,3.5-10.6c2.3-2.6,5.4-3.9,9.3-3.9c3.9,0,7,1.3,9.3,3.9s3.5,6.1,3.5,10.6V114.1z
				 M241.3,103.2c0-2.8-0.5-4.8-1.5-6.3c-1-1.4-2.4-2.1-4.2-2.1c-1.9,0-3.3,0.7-4.2,2.1c-0.9,1.4-1.4,3.5-1.4,6.3v10.9
				c0,2.8,0.5,4.9,1.4,6.3c1,1.4,2.4,2.1,4.2,2.1c1.8,0,3.3-0.7,4.2-2.1c1-1.4,1.5-3.5,1.5-6.3V103.2z"/>
			<path class="st0" d="M261.5,112.6v15.3h-7.1V89.4h11.9c3.6,0,6.4,1,8.5,3c2.1,2,3.1,4.8,3.1,8.3c0,2-0.4,3.7-1.3,5.2
				c-0.9,1.5-2.1,2.6-3.7,3.5c1.9,0.7,3.2,1.8,4.1,3.3c0.8,1.6,1.2,3.5,1.2,5.8v2.7c0,1.1,0.1,2.2,0.4,3.4c0.2,1.2,0.6,2.1,1.2,2.6
				v0.6h-7.4c-0.6-0.6-1-1.5-1.1-2.8c-0.2-1.3-0.2-2.6-0.2-3.9v-2.6c0-1.9-0.4-3.4-1.1-4.5s-1.8-1.6-3.2-1.6H261.5z M261.5,106.6
				h4.8c1.5,0,2.6-0.5,3.3-1.4c0.8-0.9,1.1-2.3,1.1-4c0-1.8-0.4-3.2-1.1-4.2c-0.8-1-1.9-1.6-3.3-1.6h-4.8V106.6z"/>
			<path class="st0" d="M304.3,95.4h-8.2v32.5H289V95.4h-8.2v-6h23.6V95.4z"/>
			<path class="st0" d="M328.5,111h-12.3v10.9h14.5v6h-21.6V89.4h21.6v6h-14.4v9.6h12.3V111z"/>
			<path class="st0" d="M347,102.9h0.2l5-13.5h8.3l-8.9,19.1l9.5,19.4h-8.6l-5.1-13.8h-0.2l-5.1,13.8h-8.3l9.1-19.4l-8.9-19.1h8.2
				L347,102.9z"/>
		</g>
		<g>
			<path d="M205.7,144.5v10.9c0,1.7-0.5,3-1.4,4c-1,0.9-2.2,1.4-3.7,1.4c-1.5,0-2.8-0.5-3.7-1.4c-1-0.9-1.4-2.3-1.4-4v-10.9h3v10.9
				c0,1,0.2,1.7,0.6,2.2c0.4,0.5,0.9,0.7,1.6,0.7c0.7,0,1.3-0.2,1.6-0.7c0.4-0.4,0.6-1.2,0.6-2.2v-10.9H205.7z"/>
			<path d="M219.1,160.5h-3l-4.7-10.3l-0.1,0v10.3h-3v-16.1h3l4.7,10.3l0.1,0v-10.2h3V160.5z"/>
			<path d="M225.1,160.5h-3v-16.1h3V160.5z"/>
			<path d="M232.7,156.4l0.1,0.6h0.1l0.1-0.6l2.5-12h3.1l-4.3,16.1h-3.1l-4.3-16.1h3.1L232.7,156.4z"/>
			<path d="M248.6,153.5h-5.1v4.5h6v2.5h-9v-16.1h9v2.5h-6v4h5.1V153.5z"/>
			<path d="M254.6,154.1v6.4h-3v-16.1h5c1.5,0,2.7,0.4,3.5,1.3c0.9,0.8,1.3,2,1.3,3.5c0,0.8-0.2,1.6-0.5,2.2
				c-0.4,0.6-0.9,1.1-1.6,1.5c0.8,0.3,1.3,0.7,1.7,1.4c0.3,0.6,0.5,1.5,0.5,2.4v1.1c0,0.4,0,0.9,0.1,1.4c0.1,0.5,0.3,0.9,0.5,1.1
				v0.2h-3.1c-0.2-0.2-0.4-0.6-0.5-1.1c-0.1-0.5-0.1-1.1-0.1-1.6v-1.1c0-0.8-0.2-1.4-0.5-1.9c-0.3-0.4-0.8-0.7-1.3-0.7H254.6z
				 M254.6,151.6h2c0.6,0,1.1-0.2,1.4-0.6c0.3-0.4,0.5-0.9,0.5-1.7c0-0.7-0.2-1.3-0.5-1.8c-0.3-0.4-0.8-0.7-1.4-0.7h-2V151.6z"/>
			<path d="M271.1,156.3c0-0.6-0.2-1.1-0.5-1.5c-0.3-0.4-0.8-0.7-1.6-1.1c-1.6-0.6-2.8-1.2-3.6-2s-1.2-1.8-1.2-3.1
				c0-1.3,0.5-2.4,1.4-3.2c0.9-0.8,2.1-1.2,3.5-1.2c1.5,0,2.6,0.5,3.5,1.4c0.9,0.9,1.3,2.1,1.3,3.5l0,0.1h-2.9
				c0-0.7-0.2-1.3-0.5-1.8c-0.3-0.5-0.8-0.7-1.5-0.7c-0.6,0-1.1,0.2-1.4,0.6c-0.3,0.4-0.5,0.9-0.5,1.4c0,0.5,0.2,1,0.6,1.3
				s1,0.7,1.9,1.1c1.4,0.5,2.5,1.2,3.3,2c0.7,0.8,1.1,1.9,1.1,3.2c0,1.4-0.4,2.5-1.3,3.3c-0.9,0.8-2.1,1.2-3.5,1.2
				c-1.5,0-2.7-0.4-3.8-1.3c-1.1-0.9-1.6-2.2-1.5-3.8l0-0.1h2.9c0,1,0.2,1.7,0.6,2.1c0.4,0.4,1,0.7,1.8,0.7c0.6,0,1.1-0.2,1.4-0.5
				C270.9,157.4,271.1,156.9,271.1,156.3z"/>
			<path d="M279.6,160.5h-3v-16.1h3V160.5z"/>
			<path d="M291.3,147h-3.4v13.6h-3V147h-3.4v-2.5h9.8V147z"/>
			<path d="M301.4,153.5h-5.1v4.5h6v2.5h-9v-16.1h9v2.5h-6v4h5.1V153.5z M297.8,140.4h3.1l0,0.1l-2.6,2.9l-2.4,0L297.8,140.4z"/>
			<path d="M309.6,160.5v-16.1h4.6c1.6,0,2.9,0.6,3.9,1.9c1,1.2,1.5,2.9,1.5,4.8v2.7c0,2-0.5,3.6-1.5,4.8c-1,1.2-2.3,1.9-3.9,1.9
				H309.6z M312.6,147V158h1.5c0.8,0,1.5-0.4,1.9-1.1c0.5-0.8,0.7-1.8,0.7-3v-2.7c0-1.3-0.2-2.3-0.7-3c-0.5-0.8-1.1-1.1-1.9-1.1
				H312.6z"/>
			<path d="M330.3,153.5h-5.1v4.5h6v2.5h-9v-16.1h9v2.5h-6v4h5.1V153.5z"/>
			<path d="M341.5,158h5.6v2.5h-8.6v-16.1h3V158z"/>
			<path d="M351.3,151.4L351.3,151.4l2.6-6.9h3.2l-4.4,10.4v5.7h-3v-5.9l-4.3-10.2h3.3L351.3,151.4z"/>
			<path d="M368.9,154.8c0,1.9-0.5,3.4-1.5,4.4c-1,1.1-2.3,1.6-3.9,1.6c-1.6,0-2.9-0.5-3.9-1.6c-1-1.1-1.4-2.5-1.4-4.4v-4.5
				c0-1.9,0.5-3.3,1.4-4.4c1-1.1,2.3-1.6,3.9-1.6c1.6,0,2.9,0.5,3.9,1.6c1,1.1,1.5,2.5,1.5,4.4V154.8z M366,150.2
				c0-1.2-0.2-2-0.6-2.6c-0.4-0.6-1-0.9-1.8-0.9c-0.8,0-1.4,0.3-1.8,0.9c-0.4,0.6-0.6,1.5-0.6,2.6v4.5c0,1.2,0.2,2,0.6,2.6
				c0.4,0.6,1,0.9,1.8,0.9c0.8,0,1.4-0.3,1.8-0.9c0.4-0.6,0.6-1.5,0.6-2.6V150.2z"/>
			<path d="M382.1,160.5h-3l-4.7-10.3l-0.1,0v10.3h-3v-16.1h3l4.7,10.3l0.1,0v-10.2h3V160.5z"/>
		</g>
		<rect x="281.2" y="37.3" class="st0" width="29" height="5.8"/>
		<rect x="281.2" y="53.6" class="st0" width="29" height="5.8"/>
		<rect x="281.2" y="69.9" class="st0" width="29" height="5.8"/>
	</g>
	<rect x="27.7" y="28.2" transform="matrix(-1.836970e-16 1 -1 -1.836970e-16 194.4467 0.4957)" width="138.6" height="138.6"/>
	<polygon class="st0" points="27.7,167.1 166.3,28.2 166.3,167.1 	"/>
	<g>
		<path class="st1" d="M102.6,101.3c0,7.5,0,16.8,0,16.8c0,3.1-2.5,5.7-5.7,5.7c-3.1,0-5.7-2.5-5.7-5.7c0-0.2,0-0.5,0-0.7v-16.1
			h-3.8v16.2c0,0.2,0,0.4,0,0.6c0,5.2,4.3,9.5,9.5,9.5c5.2,0,9.5-4.3,9.5-9.5c0,0,0-9.4,0-16.8H102.6z"/>
		<path class="st1" d="M119.1,101.3c0,7.4,0,16.7,0,16.8c0,12.3-10,22.2-22.2,22.2c-12.1,0-21.9-9.6-22.2-21.6l0-0.2v-17.3h-3.8V119
			l0,0.2c0.6,13.9,12,25,26,25c14.4,0,26.1-11.7,26.1-26.1c0-0.1,0-9.4,0-16.8H119.1z"/>
		<path class="st1" d="M110.6,101.3c0,7.5,0,16.8,0,16.8c0,7.6-6.2,13.7-13.7,13.7c-7.6,0-13.7-6.2-13.7-13.7c0,0,0-0.2,0-0.3v-16.5
			h-4.3V118l0,0.2l0,0.1c0.1,9.8,8.1,17.8,18,17.8c9.9,0,18-8.1,18-18c0-0.1,0-9.4,0-16.8H110.6z"/>
		<path class="st1" d="M124.2,56.3c0,0-0.1-0.2-0.3-0.3c-0.2-0.2-0.6-0.4-0.8-0.6c-0.2-0.2-0.4-0.5-0.6-0.6
			c-0.1-0.1-0.4-0.5-0.5-0.6c-0.1-0.1-0.3-0.7-0.3-0.8c0-0.1-0.1-0.3-0.2-0.4c-0.1,0-0.4-0.2-0.6-0.4c-0.2-0.2-0.6-0.6-0.6-0.6
			s-0.1-0.8-0.3-1.2c-0.2-0.4-0.3-0.6-0.3-0.7c-0.1-0.2-0.1-0.2-0.2-0.4c0,0-0.3,0-0.5,0.1c0,0-0.5-0.4-1-0.7
			c-0.5-0.3-1.1-0.6-1.3-0.6c-0.2-0.1-0.5-0.2-0.7-0.4c0,0-0.3,0-0.6,0c-0.2,0-0.9,0.1-1.2,0.1c-0.4,0-1.2,0.2-1.4,0.2
			c-0.4,0-0.5,0.1-1.1,0.2c0,0-0.5,0.1-0.7,0.2c-0.2,0.1-0.7,0.3-1.1,0.3c-0.4,0-0.8,0.1-1.3,0.1c-0.2,0-1.1,0.4-1.5,0.5
			c-0.2,0-0.4,0.1-0.4,0.1s0.1,0.3,0.3,0.3c0,0-0.1,0.2-0.4,0.4c-0.3,0.1-0.6,0.3-0.9,0.4c-0.4,0.1-1,0.4-1.1,0.5
			c0,0,0.1,0.2,0.3,0.4c0,0,0.1,0-0.3,0.2c-0.3,0.2-1.1,0.5-1.4,0.6c-0.3,0.2-0.8,0.4-1,0.5c-0.3,0.2-0.4,0.2-0.7,0.4
			c-0.3,0.2-0.1,0.2-0.1,0.2s0.2,0,0.4,0c0.2,0,0.3,0.1,0.3,0.1s0,0.1-0.1,0.3c-0.2,0.1-0.4,0.4-0.9,0.8c-0.3,0.2-0.5,0.4-0.8,0.6
			c-0.3,0.2-0.6,0.5-0.7,0.6l0.3,0.3l0,0.2c-0.1,0.1-0.3,0.2-0.5,0.3c-0.2,0.1-2.3,0.4-4.6,0.3c-3.9-0.1-5-0.6-7-0.6
			c-2-0.1-3.5,0.3-5.3,0.9c-0.4,0.1-0.6,0.2-0.9,0.3c-0.8,0.2-1.5,0.4-2.2,0.6c-2.5,1-7,4.6-8.2,5.2c-1.2,0.5-1.9,0.5-2.8,0.4
			c-0.9-0.1-1.2-0.3-1.2-0.3s-0.4-0.9-1-1.3c-0.7-0.5-2.3-1.1-2.3-1.1s-0.3,1.1,0.3,2.1c0.7,1.2,2.1,1.2,2.5,1.4
			c0.9,0.3,2.9,0.8,4.7,0.1c1.6-0.6,3.2-1.7,4.3-2.3c1.1-0.6,2.9-1.2,4.5-1.4c-0.1,0.3-0.1,0.5-0.2,0.8c-0.4,1.3-2,4-2.3,4.5
			c-0.4,0.5-1.8,2.3-2.1,2.5c-0.3,0.2-0.9,0.5-1.7,0.6c-0.9,0.2-3.3,0.4-3.3,0.4s-0.4,2.2-1,3.5c-0.2,0.5-0.8,1.6-0.8,1.6
			s0.9,0.9,1.2,1.9c0.2,0.3,0.5,0.9,0.7,0.9h4c0,0,0.3-1-0.5-1.2c-0.4-0.2-0.3-0.3-1.3-0.7c-0.4-0.1-0.6-0.3-0.8-0.8
			c-0.2-0.5-0.2-1.3-0.2-1.3s0.1-0.8,0.5-1c0.5-0.2,1.7,0.2,2.9,0c1.8-0.3,4.3-1.2,5.2-1.6c0.8-0.3,2.2-1.7,2.6-2
			c0.4-0.4,0.9-0.5,0.9-0.5s0.5,0.6,1.6,1.5c1,0.9,1.4,1.4,1.8,1.7c0.4,0.3,0.8,0.9,0.9,1.2c0.3,0.9,0.2,2.4,0.2,2.4s1.6,0.6,2.1,1
			c0.5,0.5,0.9,1.3,0.9,1.3l4.8,0c0.2-0.6-0.2-0.9-0.3-1c-0.2-0.2-0.4-0.6-0.8-0.7c-1.6-0.6-1.6-0.3-2.1-0.7
			c-0.3-0.3-1.1-0.8-1.3-1.1c-0.2-0.3-0.5-1.8-0.5-3.1c0-0.8-0.1-1.5-0.1-2c1.5-0.3,3.9-0.6,5.7,0.2c0.4,0.2,1.3,0.6,2.3,0.9
			c0.1,0.3,0.2,0.6,0.1,1.1C99.3,73,98,74.6,98,74.6s0.7,1.6,0.8,1.8c0.2,0.2,0.8,0.7,1,1.1c0.1,0.2,0.3,0.6,0.3,0.6h4.2
			c0,0,0.3-0.8-0.3-1.1c-0.2-0.1-0.5-0.4-0.7-0.5c-1.1-0.5-1.2-0.3-1.6-0.7c-0.3-0.2-0.4-1-0.4-1s1.9-1.9,2.3-2.4
			c0.5-0.6,0.7-0.8,0.9-1.1c1.5-0.1,3-0.4,3.5-0.7c0.2-0.1,0.3-0.2,0.4-0.2c0.2,0.1,0.3,0.2,0.4,0.3c0.8,0.5,2.7,1.3,3.4,1.8
			c0.7,0.6,1.7,2.2,1.7,2.2s1.7,0.6,2.1,1.2c0.3,0.4,1.8,0.8,1.8,0.8s0.5,0,1.1,0.6c0.6,0.6,0.7,0.7,1.2,0.7c1,0.1,2.7,0.1,2.7,0.1
			s0.5-1.1-0.3-1.4c-0.8-0.4-0.1-0.7-1.9-1.4c-0.5-0.2-1.4-0.5-1.7-0.7c-0.3-0.2-1.9-2.4-2.6-3.3c-0.8-0.9-2.4-3-2.4-3l-0.3-0.8
			l0.1-0.6c0.1-0.1,0.2-0.2,0.3-0.3c0.3-0.3,0.7-0.8,0.8-1c0.3-0.6,0.2,0,0.4-0.3c0.1-0.2,0.7-0.5,0.9-0.7c0.2-0.1,0.6-0.5,0.6-0.5
			s0,0.2,0.1,0.5c0,0,0.2-0.1,0.4-0.4c0.2-0.3,0.2-0.3,0.5-0.6c0.3-0.3,0.5-0.9,0.7-1.3c0.2-0.4,0.3-0.5,0.4-0.6
			c0,0,0.1,0.3,0.2,0.5c0,0,0.2-0.2,0.3-0.4c0.1-0.2,0.1-0.4,0.3-0.7c0.1-0.2,0.2-0.5,0.4-0.6c0.1-0.1,0.4-0.2,0.7-0.2
			c0.2,0,0.5,0.1,0.7,0.2c0.2,0.1,0.4-0.1,0.5,0.2c0.2,0.2,0.4,0.3,0.4,0.3s0,0,0.2-0.1c0.2-0.1,0.2-0.1,0.4-0.2
			c0.2-0.1,0.2-0.2,0.3-0.3c0.2-0.1,0.2-0.3,0.3-0.5c0.1-0.2,0-0.4,0.1-0.5c0.1-0.1,0.4-0.1,0.5-0.4c0.1-0.3,0.1-0.3,0.1-0.4
			c0.1,0,0.1-0.3,0.1-0.3s0.3-0.3,0.4-0.5c0-0.2,0.1-0.3,0.2-0.4C124.7,56.9,124.6,56.6,124.2,56.3"/>
		<rect x="70.7" y="93.5" class="st1" width="52.2" height="3.9"/>
		<rect x="70.7" y="85.7" class="st1" width="52.2" height="3.9"/>
		<rect x="70.7" y="77.9" class="st1" width="52.2" height="3.9"/>
	</g>
</g>
</svg>
