<?xml version="1.0" encoding="utf-8"?>
<!-- Generator: Adobe Illustrator 23.0.1, SVG Export Plug-In . SVG Version: 6.00 Build 0)  -->
<svg version="1.0" id="Calque_1" xmlns="http://www.w3.org/2000/svg" xmlns:xlink="http://www.w3.org/1999/xlink" x="0px" y="0px"
	 viewBox="0 0 396 264.7" style="enable-background:new 0 0 396 264.7;" xml:space="preserve">
<style type="text/css">
	.st0{fill:#FF671D;}
	.st1{fill:#1D1D1B;}
	.st2{fill:#8E4017;}
	.st3{fill:#FFFFFF;}
</style>
<g>
	<path class="st0" d="M218.2,55.4h-7.8l-12.3-22.6l-0.1,0v22.5h-7.8V20h7.8l12.3,22.6l0.1,0V20h7.8V55.4z"/>
	<path class="st0" d="M242.6,46.1c0-1.2-0.4-2.2-1.2-2.9c-0.8-0.7-2.2-1.4-4.2-2.2c-4.3-1.4-7.4-2.9-9.4-4.5c-2-1.6-3.1-3.9-3.1-7
		c0-3,1.2-5.4,3.7-7.2c2.4-1.8,5.5-2.7,9.3-2.7c3.7,0,6.8,1,9.2,3s3.5,4.6,3.5,7.8l0,0.1h-7.6c0-1.4-0.5-2.6-1.4-3.4
		c-0.9-0.9-2.2-1.3-3.8-1.3c-1.6,0-2.8,0.4-3.7,1.1c-0.9,0.7-1.3,1.6-1.3,2.7c0,1,0.5,1.9,1.4,2.5c0.9,0.6,2.6,1.4,5.1,2.3
		c3.8,1.2,6.7,2.7,8.6,4.4s2.9,4.2,2.9,7.2c0,3.1-1.2,5.5-3.5,7.3s-5.4,2.6-9.2,2.6c-3.8,0-7.1-1-9.9-3c-2.8-2-4.1-4.9-4.1-8.7
		l0-0.1h7.6c0,2,0.5,3.5,1.6,4.4c1,0.9,2.6,1.3,4.8,1.3c1.6,0,2.8-0.3,3.6-1C242.2,48,242.6,47.2,242.6,46.1z"/>
	<path class="st0" d="M282,43l0,0.1c-0.2,4.2-1.3,7.3-3.5,9.5c-2.2,2.2-5.3,3.3-9.5,3.3c-4.2,0-7.5-1.3-10.1-4
		c-2.6-2.7-3.9-6.2-3.9-10.5V34c0-4.3,1.3-7.8,3.8-10.5c2.5-2.7,5.8-4,9.8-4c4.3,0,7.5,1.1,9.8,3.4c2.2,2.3,3.5,5.5,3.8,9.6l0,0.1
		h-7.6c-0.1-2.3-0.6-4-1.5-5.1s-2.4-1.7-4.4-1.7c-1.8,0-3.2,0.8-4.2,2.2c-1,1.5-1.5,3.5-1.5,5.9v7.4c0,2.4,0.6,4.4,1.7,5.9
		c1.1,1.5,2.6,2.3,4.6,2.3c1.9,0,3.2-0.5,4-1.6c0.8-1.1,1.2-2.7,1.3-5H282z"/>
	<path class="st0" d="M311.1,44.2c0,3.5-1.1,6.3-3.4,8.5c-2.3,2.2-5.2,3.3-8.8,3.3c-3.6,0-6.5-1.1-8.8-3.3c-2.3-2.2-3.4-5-3.4-8.5
		v-5.9c0-3.4,1.1-6.2,3.4-8.4c2.3-2.2,5.2-3.2,8.8-3.2c3.6,0,6.5,1.1,8.8,3.2c2.3,2.2,3.4,4.9,3.4,8.4V44.2z M303.3,38.3
		c0-1.4-0.4-2.7-1.2-3.7c-0.8-1.1-1.9-1.6-3.2-1.6c-1.4,0-2.5,0.5-3.3,1.6c-0.8,1-1.2,2.3-1.2,3.8v5.9c0,1.5,0.4,2.7,1.2,3.8
		c0.8,1.1,1.9,1.6,3.3,1.6c1.4,0,2.4-0.5,3.2-1.6s1.2-2.3,1.2-3.8V38.3z"/>
	<path class="st0" d="M201.9,87.5h-2.6l-7.2-14.8l-0.1,0v14.8h-2.6v-20h2.6l7.2,14.8l0.1,0V67.6h2.6V87.5z"/>
	<path class="st0" d="M216,78.2h-7v7.2h8.2v2.1h-10.8v-20H217v2.1h-8.1v6.5h7V78.2z"/>
	<path class="st0" d="M232,67.6v13.8c0,2.1-0.6,3.7-1.7,4.8s-2.6,1.7-4.4,1.7c-1.8,0-3.2-0.6-4.3-1.7s-1.7-2.7-1.7-4.8V67.6h2.6
		v13.8c0,1.4,0.3,2.5,0.9,3.2c0.6,0.7,1.4,1.1,2.5,1.1c1.1,0,1.9-0.3,2.5-1c0.6-0.7,0.9-1.8,0.9-3.3V67.6H232z"/>
	<path class="st0" d="M238.6,78.9v8.6H236V67.6h5.9c1.8,0,3.2,0.5,4.2,1.5c1,1,1.5,2.4,1.5,4.2c0,1-0.2,1.9-0.7,2.7
		c-0.5,0.8-1.1,1.4-2,1.8c0.9,0.3,1.6,0.9,2.1,1.7c0.4,0.8,0.6,1.8,0.6,3v1.7c0,0.6,0.1,1.2,0.2,1.7s0.3,0.9,0.6,1.2v0.3h-2.7
		c-0.3-0.3-0.5-0.8-0.6-1.4c-0.1-0.6-0.1-1.3-0.1-1.9v-1.7c0-1.1-0.2-2-0.7-2.6c-0.5-0.6-1.1-1-2-1H238.6z M238.6,76.8h3.1
		c1.1,0,1.9-0.3,2.4-0.9c0.5-0.6,0.8-1.5,0.8-2.6c0-1.1-0.2-2-0.7-2.7s-1.2-0.9-2.3-0.9h-3.3V76.8z"/>
	<path class="st0" d="M263.8,80.3c0,2.4-0.6,4.2-1.7,5.5c-1.2,1.3-2.7,2-4.7,2c-1.9,0-3.5-0.7-4.6-2c-1.1-1.3-1.7-3.2-1.7-5.5v-5.5
		c0-2.4,0.6-4.2,1.7-5.5c1.1-1.3,2.7-2,4.6-2c1.9,0,3.5,0.7,4.7,2c1.2,1.3,1.8,3.2,1.8,5.5V80.3z M261.2,74.8c0-1.7-0.3-3.1-1-4
		c-0.7-0.9-1.6-1.4-2.8-1.4c-1.2,0-2.1,0.5-2.7,1.4s-1,2.2-1,4v5.5c0,1.8,0.3,3.1,1,4c0.6,0.9,1.5,1.4,2.7,1.4
		c1.2,0,2.2-0.4,2.8-1.4c0.7-0.9,1-2.2,1-4V74.8z"/>
	<path class="st0" d="M276.2,82.5c0-0.9-0.3-1.7-0.8-2.3c-0.5-0.6-1.4-1.1-2.6-1.6c-1.8-0.6-3.2-1.3-4.2-2.3c-1-0.9-1.4-2.2-1.4-3.7
		c0-1.6,0.5-2.9,1.6-3.9c1.1-1,2.5-1.5,4.1-1.5c1.8,0,3.2,0.6,4.2,1.7s1.6,2.6,1.6,4.2l0,0.1h-2.5c0-1.2-0.3-2.1-0.9-2.8
		s-1.4-1.1-2.4-1.1c-1,0-1.7,0.3-2.3,0.9c-0.5,0.6-0.8,1.4-0.8,2.3c0,0.9,0.3,1.6,0.9,2.1c0.6,0.6,1.5,1.1,2.8,1.6
		c1.7,0.6,3,1.3,3.9,2.3c0.9,1,1.4,2.2,1.4,3.8c0,1.6-0.5,2.9-1.6,3.9c-1.1,1-2.5,1.4-4.2,1.4c-1.7,0-3.2-0.5-4.4-1.6
		c-1.3-1.1-1.9-2.5-1.8-4.5l0-0.1h2.5c0,1.4,0.3,2.4,1,3s1.6,1,2.7,1c1,0,1.8-0.3,2.3-0.9C275.9,84.2,276.2,83.5,276.2,82.5z"/>
	<path class="st0" d="M293.6,81.5L293.6,81.5c0,2.1-0.5,3.6-1.5,4.7c-1,1.1-2.4,1.6-4.2,1.6c-1.9,0-3.3-0.7-4.5-2
		c-1.1-1.3-1.7-3.2-1.7-5.5v-5.5c0-2.4,0.5-4.2,1.6-5.5c1.1-1.3,2.6-2,4.4-2c1.9,0,3.3,0.5,4.3,1.6c1,1.1,1.5,2.6,1.5,4.7l0,0.1
		h-2.5c0-1.5-0.3-2.5-0.8-3.2c-0.5-0.7-1.3-1-2.5-1c-1.1,0-1.9,0.5-2.5,1.4c-0.6,0.9-0.9,2.2-0.9,4v5.6c0,1.7,0.3,3.1,0.9,4
		c0.6,0.9,1.5,1.4,2.6,1.4c1.1,0,1.9-0.3,2.4-1c0.5-0.7,0.8-1.7,0.8-3.2H293.6z"/>
	<path class="st0" d="M300,87.5h-2.6v-20h2.6V87.5z"/>
	<path class="st0" d="M314.2,78.2h-7v7.2h8.2v2.1h-10.8v-20h10.7v2.1h-8.1v6.5h7V78.2z"/>
	<path class="st0" d="M330.9,87.5h-2.6l-7.2-14.8l-0.1,0v14.8h-2.6v-20h2.6l7.2,14.8l0.1,0V67.6h2.6V87.5z"/>
	<path class="st0" d="M346.5,81.5L346.5,81.5c0,2.1-0.5,3.6-1.5,4.7c-1,1.1-2.4,1.6-4.2,1.6c-1.9,0-3.3-0.7-4.5-2
		c-1.1-1.3-1.7-3.2-1.7-5.5v-5.5c0-2.4,0.5-4.2,1.6-5.5c1.1-1.3,2.6-2,4.4-2c1.9,0,3.3,0.5,4.3,1.6c1,1.1,1.5,2.6,1.5,4.7l0,0.1H344
		c0-1.5-0.3-2.5-0.8-3.2c-0.5-0.7-1.3-1-2.5-1c-1.1,0-1.9,0.5-2.5,1.4c-0.6,0.9-0.9,2.2-0.9,4v5.6c0,1.7,0.3,3.1,0.9,4
		c0.6,0.9,1.5,1.4,2.6,1.4c1.1,0,1.9-0.3,2.4-1c0.5-0.7,0.8-1.7,0.8-3.2H346.5z"/>
	<path class="st0" d="M359.8,78.2h-7v7.2h8.2v2.1h-10.8v-20h10.7v2.1h-8.1v6.5h7V78.2z"/>
	<path class="st0" d="M372.7,82.5c0-0.9-0.3-1.7-0.8-2.3c-0.5-0.6-1.4-1.1-2.6-1.6c-1.8-0.6-3.2-1.3-4.2-2.3c-1-0.9-1.4-2.2-1.4-3.7
		c0-1.6,0.5-2.9,1.6-3.9c1.1-1,2.5-1.5,4.1-1.5c1.8,0,3.2,0.6,4.2,1.7s1.6,2.6,1.6,4.2l0,0.1h-2.5c0-1.2-0.3-2.1-0.9-2.8
		s-1.4-1.1-2.4-1.1c-1,0-1.7,0.3-2.3,0.9c-0.5,0.6-0.8,1.4-0.8,2.3c0,0.9,0.3,1.6,0.9,2.1c0.6,0.6,1.5,1.1,2.8,1.6
		c1.7,0.6,3,1.3,3.9,2.3c0.9,1,1.4,2.2,1.4,3.8c0,1.6-0.5,2.9-1.6,3.9c-1.1,1-2.5,1.4-4.2,1.4c-1.7,0-3.2-0.5-4.4-1.6
		c-1.3-1.1-1.9-2.5-1.8-4.5l0-0.1h2.5c0,1.4,0.3,2.4,1,3s1.6,1,2.7,1c1,0,1.8-0.3,2.3-0.9C372.4,84.2,372.7,83.5,372.7,82.5z"/>
	<path class="st0" d="M199,110.3h-7v7.2h8.2v2.1h-10.8v-20h10.7v2.1H192v6.5h7V110.3z"/>
	<path class="st0" d="M214.5,101.8h-4.9v17.8H207v-17.8h-4.8v-2.1h12.4V101.8z"/>
	<path class="st0" d="M235.2,113.5L235.2,113.5c0,2.1-0.5,3.6-1.5,4.7c-1,1.1-2.4,1.6-4.2,1.6c-1.9,0-3.3-0.7-4.5-2
		c-1.1-1.3-1.7-3.2-1.7-5.5v-5.5c0-2.4,0.5-4.2,1.6-5.5c1.1-1.3,2.6-2,4.4-2c1.9,0,3.3,0.5,4.3,1.6c1,1.1,1.5,2.6,1.5,4.7l0,0.1
		h-2.5c0-1.5-0.3-2.5-0.8-3.2c-0.5-0.7-1.3-1-2.5-1c-1.1,0-1.9,0.5-2.5,1.4c-0.6,0.9-0.9,2.2-0.9,4v5.6c0,1.7,0.3,3.1,0.9,4
		c0.6,0.9,1.5,1.4,2.6,1.4c1.1,0,1.9-0.3,2.4-1c0.5-0.7,0.8-1.7,0.8-3.2H235.2z"/>
	<path class="st0" d="M250.8,112.4c0,2.4-0.6,4.2-1.7,5.5c-1.2,1.3-2.7,2-4.7,2c-1.9,0-3.5-0.7-4.6-2c-1.1-1.3-1.7-3.2-1.7-5.5v-5.5
		c0-2.4,0.6-4.2,1.7-5.5c1.1-1.3,2.7-2,4.6-2c1.9,0,3.5,0.7,4.7,2c1.2,1.3,1.8,3.2,1.8,5.5V112.4z M248.2,106.9c0-1.7-0.3-3.1-1-4
		c-0.7-0.9-1.6-1.4-2.8-1.4c-1.2,0-2.1,0.5-2.7,1.4s-1,2.2-1,4v5.5c0,1.8,0.3,3.1,1,4c0.6,0.9,1.5,1.4,2.7,1.4
		c1.2,0,2.2-0.4,2.8-1.4c0.7-0.9,1-2.2,1-4V106.9z"/>
	<path class="st0" d="M266.5,116.8c-0.4,0.8-1.1,1.5-2.1,2.2s-2.2,1-3.7,1c-2,0-3.6-0.6-4.8-1.9c-1.2-1.3-1.8-3.1-1.8-5.4v-5.9
		c0-2.3,0.6-4.1,1.7-5.4c1.2-1.3,2.7-1.9,4.6-1.9c1.9,0,3.4,0.5,4.4,1.5c1,1,1.6,2.5,1.6,4.3l0,0.1h-2.5c0-1.3-0.4-2.2-0.9-2.9
		s-1.4-1-2.6-1c-1.2,0-2.1,0.4-2.7,1.3s-1,2.1-1,3.8v6c0,1.7,0.4,3,1.1,3.9c0.7,0.9,1.7,1.3,2.9,1.3c0.9,0,1.6-0.2,2.1-0.5
		c0.5-0.3,0.9-0.7,1.1-1.2v-4.5h-3.2v-2h5.9V116.8z"/>
	<path class="st0" d="M283.3,119.6h-2.6l-7.2-14.8l-0.1,0v14.8h-2.6v-20h2.6l7.2,14.8l0.1,0V99.6h2.6V119.6z"/>
	<path class="st0" d="M290.5,119.6h-2.6v-20h2.6V119.6z"/>
	<path class="st0" d="M305.6,101.8h-4.9v17.8h-2.6v-17.8h-4.8v-2.1h12.4V101.8z"/>
	<path class="st0" d="M311.4,119.6h-2.6v-20h2.6V119.6z"/>
	<path class="st0" d="M328,112.4c0,2.4-0.6,4.2-1.7,5.5c-1.2,1.3-2.7,2-4.7,2c-1.9,0-3.5-0.7-4.6-2c-1.1-1.3-1.7-3.2-1.7-5.5v-5.5
		c0-2.4,0.6-4.2,1.7-5.5c1.1-1.3,2.7-2,4.6-2c1.9,0,3.5,0.7,4.7,2c1.2,1.3,1.8,3.2,1.8,5.5V112.4z M325.4,106.9c0-1.7-0.3-3.1-1-4
		c-0.7-0.9-1.6-1.4-2.8-1.4c-1.2,0-2.1,0.5-2.7,1.4s-1,2.2-1,4v5.5c0,1.8,0.3,3.1,1,4c0.6,0.9,1.5,1.4,2.7,1.4
		c1.2,0,2.2-0.4,2.8-1.4c0.7-0.9,1-2.2,1-4V106.9z"/>
	<path class="st0" d="M344.2,119.6h-2.6l-7.2-14.8l-0.1,0v14.8h-2.6v-20h2.6l7.2,14.8l0.1,0V99.6h2.6V119.6z"/>
	<path class="st1" d="M197.6,133.4v9.7c0,1.5-0.4,2.7-1.3,3.5s-2,1.2-3.3,1.2s-2.5-0.4-3.3-1.2c-0.8-0.8-1.3-2-1.3-3.5v-9.7h2.6v9.7
		c0,0.9,0.2,1.5,0.5,1.9c0.3,0.4,0.8,0.6,1.4,0.6c0.6,0,1.1-0.2,1.5-0.6c0.3-0.4,0.5-1,0.5-1.9v-9.7H197.6z"/>
	<path class="st1" d="M209.5,147.7h-2.6l-4.1-9.1l-0.1,0v9.1H200v-14.3h2.7l4.1,9.1l0.1,0v-9.1h2.6V147.7z"/>
	<path class="st1" d="M214.8,147.7h-2.6v-14.3h2.6V147.7z"/>
	<path class="st1" d="M221.5,144l0.1,0.5h0.1l0.1-0.5l2.3-10.6h2.8l-3.8,14.3h-2.8l-3.8-14.3h2.8L221.5,144z"/>
	<path class="st1" d="M235.6,141.4h-4.5v4h5.3v2.2h-8v-14.3h8v2.2h-5.3v3.6h4.5V141.4z"/>
	<path class="st1" d="M240.9,142v5.7h-2.6v-14.2h4.4c1.3,0,2.4,0.4,3.1,1.1c0.8,0.7,1.1,1.8,1.1,3.1c0,0.7-0.2,1.4-0.5,1.9
		c-0.3,0.5-0.8,1-1.4,1.3c0.7,0.2,1.2,0.7,1.5,1.2c0.3,0.6,0.5,1.3,0.5,2.2v1c0,0.4,0,0.8,0.1,1.3s0.2,0.8,0.5,1v0.2h-2.7
		c-0.2-0.2-0.4-0.5-0.4-1c-0.1-0.5-0.1-0.9-0.1-1.4v-1c0-0.7-0.1-1.3-0.4-1.7c-0.3-0.4-0.7-0.6-1.2-0.6H240.9z M240.9,139.8h1.8
		c0.5,0,0.9-0.2,1.2-0.5c0.3-0.3,0.4-0.8,0.4-1.5c0-0.7-0.1-1.2-0.4-1.6c-0.3-0.4-0.7-0.6-1.2-0.6h-1.8V139.8z"/>
	<path class="st1" d="M255.6,144c0-0.6-0.1-1-0.4-1.3c-0.3-0.3-0.8-0.6-1.4-1c-1.4-0.5-2.5-1.1-3.2-1.8c-0.7-0.7-1.1-1.6-1.1-2.8
		c0-1.2,0.4-2.1,1.2-2.9s1.9-1.1,3.1-1.1c1.3,0,2.3,0.4,3.1,1.2c0.8,0.8,1.2,1.9,1.2,3.1l0,0.1h-2.6c0-0.7-0.2-1.2-0.5-1.6
		c-0.3-0.4-0.7-0.6-1.3-0.6c-0.5,0-0.9,0.2-1.2,0.5c-0.3,0.3-0.4,0.8-0.4,1.3c0,0.5,0.2,0.9,0.5,1.2c0.3,0.3,0.9,0.6,1.7,1
		c1.3,0.5,2.3,1,2.9,1.7c0.6,0.7,1,1.6,1,2.8c0,1.2-0.4,2.2-1.2,2.9c-0.8,0.7-1.8,1-3.1,1c-1.3,0-2.4-0.4-3.4-1.2
		c-0.9-0.8-1.4-1.9-1.4-3.4l0-0.1h2.6c0,0.9,0.2,1.5,0.5,1.9s0.9,0.6,1.6,0.6c0.6,0,1-0.2,1.2-0.5
		C255.4,144.9,255.6,144.5,255.6,144z"/>
	<path class="st1" d="M263.1,147.7h-2.6v-14.3h2.6V147.7z"/>
	<path class="st1" d="M273.5,135.6h-3.1v12h-2.6v-12h-3v-2.2h8.7V135.6z"/>
	<path class="st1" d="M282.4,141.4h-4.5v4h5.3v2.2h-8v-14.3h8v2.2h-5.3v3.6h4.5V141.4z M279.3,129.8h2.8l0,0.1l-2.3,2.5l-2.1,0
		L279.3,129.8z"/>
	<path class="st1" d="M289.7,147.7v-14.3h4.1c1.4,0,2.5,0.6,3.4,1.7s1.4,2.5,1.4,4.3v2.4c0,1.7-0.5,3.2-1.4,4.3
		c-0.9,1.1-2.1,1.7-3.4,1.7H289.7z M292.4,135.6v9.8h1.3c0.7,0,1.3-0.3,1.7-1c0.4-0.7,0.6-1.6,0.6-2.7v-2.4c0-1.1-0.2-2-0.6-2.7
		c-0.4-0.7-1-1-1.7-1H292.4z"/>
	<path class="st1" d="M308.1,141.4h-4.5v4h5.3v2.2h-8v-14.3h8v2.2h-5.3v3.6h4.5V141.4z"/>
	<path class="st1" d="M318.1,145.4h4.9v2.2h-7.6v-14.3h2.7V145.4z"/>
	<path class="st1" d="M326.8,139.5L326.8,139.5l2.3-6.1h2.9l-3.9,9.2v5.1h-2.6v-5.2l-3.8-9h2.9L326.8,139.5z"/>
	<path class="st1" d="M342.4,142.6c0,1.7-0.4,3-1.3,3.9c-0.9,0.9-2,1.4-3.4,1.4s-2.6-0.5-3.4-1.4c-0.9-0.9-1.3-2.2-1.3-3.9v-4
		c0-1.7,0.4-3,1.3-3.9c0.9-0.9,2-1.4,3.4-1.4c1.4,0,2.6,0.5,3.4,1.4s1.3,2.3,1.3,3.9V142.6z M339.7,138.5c0-1-0.2-1.8-0.5-2.3
		c-0.4-0.5-0.9-0.8-1.6-0.8c-0.7,0-1.2,0.3-1.6,0.8c-0.3,0.5-0.5,1.3-0.5,2.3v4c0,1,0.2,1.8,0.5,2.3s0.9,0.8,1.6,0.8
		c0.7,0,1.2-0.3,1.6-0.8s0.5-1.3,0.5-2.3V138.5z"/>
	<path class="st1" d="M354.1,147.7h-2.6l-4.1-9.1l-0.1,0v9.1h-2.7v-14.3h2.7l4.1,9.1l0.1,0v-9.1h2.6V147.7z"/>
</g>
<g>
	<g>
		<path class="st1" d="M61.6,181.9h-6.4v5.7h7.5v3.1H51.5v-20.1h11.2v3.1h-7.5v5h6.4V181.9z M57.2,165.5h3.9l0,0.1l-3.3,3.6l-3,0
			L57.2,165.5z"/>
		<path class="st1" d="M77.3,184.2L77.3,184.2c0.1,2.3-0.4,3.9-1.5,5.1c-1,1.1-2.5,1.7-4.5,1.7c-2,0-3.5-0.6-4.7-1.9
			c-1.2-1.3-1.8-3.1-1.8-5.4v-6c0-2.3,0.6-4.1,1.7-5.4c1.1-1.3,2.7-1.9,4.6-1.9c2,0,3.6,0.6,4.6,1.7c1,1.1,1.6,2.8,1.6,5.1l0,0.1
			h-3.6c0.1-1.3-0.1-2.3-0.5-2.8c-0.4-0.6-1.1-0.9-2.1-0.9c-0.8,0-1.5,0.3-1.9,1c-0.4,0.7-0.7,1.7-0.7,3.1v6c0,1.4,0.2,2.5,0.7,3.2
			c0.5,0.7,1.2,1,2.1,1c0.9,0,1.5-0.3,1.9-0.8c0.4-0.5,0.5-1.5,0.5-2.8H77.3z"/>
		<path class="st1" d="M93.1,183.5c0,2.4-0.6,4.2-1.8,5.5c-1.2,1.3-2.8,2-4.8,2c-2,0-3.6-0.7-4.8-2c-1.2-1.3-1.8-3.2-1.8-5.5v-5.6
			c0-2.3,0.6-4.2,1.8-5.5c1.2-1.3,2.8-2,4.8-2c2,0,3.6,0.7,4.8,2c1.2,1.3,1.8,3.2,1.8,5.5V183.5z M89.4,177.8c0-1.4-0.3-2.5-0.8-3.3
			c-0.5-0.7-1.2-1.1-2.2-1.1c-1,0-1.7,0.4-2.2,1.1c-0.5,0.7-0.7,1.8-0.7,3.3v5.7c0,1.5,0.2,2.5,0.7,3.3c0.5,0.7,1.2,1.1,2.2,1.1
			c1,0,1.7-0.4,2.2-1.1c0.5-0.7,0.8-1.8,0.8-3.3V177.8z"/>
		<path class="st1" d="M99.9,187.5h7v3.1H96.2v-20.1h3.7V187.5z"/>
		<path class="st1" d="M119.5,181.9h-6.4v5.7h7.5v3.1h-11.3v-20.1h11.2v3.1h-7.5v5h6.4V181.9z"/>
		<path class="st1" d="M23.7,219.4v-20.1h5.8c2,0,3.6,0.8,4.8,2.3c1.3,1.6,1.9,3.6,1.9,6v3.4c0,2.5-0.6,4.5-1.9,6
			c-1.3,1.6-2.9,2.3-4.8,2.3H23.7z M27.4,202.4v13.8h1.8c1,0,1.8-0.5,2.4-1.4c0.6-1,0.8-2.2,0.8-3.8v-3.4c0-1.6-0.3-2.8-0.8-3.8
			c-0.6-0.9-1.4-1.4-2.4-1.4H27.4z"/>
		<path class="st1" d="M52.2,212.2c0,2.4-0.6,4.2-1.8,5.5c-1.2,1.3-2.8,2-4.8,2c-2,0-3.6-0.7-4.8-2c-1.2-1.3-1.8-3.2-1.8-5.5v-5.6
			c0-2.3,0.6-4.2,1.8-5.5c1.2-1.3,2.8-2,4.8-2c2,0,3.6,0.7,4.8,2c1.2,1.3,1.8,3.2,1.8,5.5V212.2z M48.5,206.5c0-1.4-0.3-2.5-0.8-3.3
			c-0.5-0.7-1.2-1.1-2.2-1.1c-1,0-1.7,0.4-2.2,1.1c-0.5,0.7-0.7,1.8-0.7,3.3v5.7c0,1.5,0.2,2.5,0.7,3.3c0.5,0.7,1.2,1.1,2.2,1.1
			c1,0,1.7-0.4,2.2-1.1c0.5-0.7,0.8-1.8,0.8-3.3V206.5z"/>
		<path class="st1" d="M67.3,212.9L67.3,212.9c0.1,2.3-0.4,3.9-1.5,5.1c-1,1.1-2.5,1.7-4.5,1.7s-3.5-0.6-4.7-1.9
			c-1.2-1.3-1.8-3.1-1.8-5.4v-6c0-2.3,0.6-4.1,1.7-5.4c1.1-1.3,2.7-1.9,4.6-1.9c2,0,3.6,0.6,4.6,1.7c1,1.1,1.6,2.8,1.6,5.1l0,0.1
			h-3.6c0.1-1.3-0.1-2.3-0.5-2.8c-0.4-0.6-1.1-0.9-2.1-0.9c-0.8,0-1.5,0.3-1.9,1c-0.4,0.7-0.7,1.7-0.7,3.1v6c0,1.4,0.2,2.5,0.7,3.2
			s1.2,1,2.1,1c0.9,0,1.5-0.3,1.9-0.8c0.4-0.5,0.5-1.5,0.5-2.8H67.3z"/>
		<path class="st1" d="M81.1,202.4h-4.3v16.9h-3.7v-16.9h-4.3v-3.1h12.3V202.4z"/>
		<path class="st1" d="M96,212.2c0,2.4-0.6,4.2-1.8,5.5c-1.2,1.3-2.8,2-4.8,2c-2,0-3.6-0.7-4.8-2c-1.2-1.3-1.8-3.2-1.8-5.5v-5.6
			c0-2.3,0.6-4.2,1.8-5.5c1.2-1.3,2.8-2,4.8-2c2,0,3.6,0.7,4.8,2c1.2,1.3,1.8,3.2,1.8,5.5V212.2z M92.3,206.5c0-1.4-0.3-2.5-0.8-3.3
			c-0.5-0.7-1.2-1.1-2.2-1.1c-1,0-1.7,0.4-2.2,1.1c-0.5,0.7-0.7,1.8-0.7,3.3v5.7c0,1.5,0.2,2.5,0.7,3.3c0.5,0.7,1.2,1.1,2.2,1.1
			c1,0,1.7-0.4,2.2-1.1c0.5-0.7,0.8-1.8,0.8-3.3V206.5z"/>
		<path class="st1" d="M102.8,211.4v8h-3.7v-20h6.2c1.9,0,3.3,0.5,4.4,1.6c1.1,1,1.6,2.5,1.6,4.3c0,1-0.2,1.9-0.7,2.7
			c-0.4,0.8-1.1,1.4-2,1.8c1,0.3,1.7,0.9,2.1,1.7c0.4,0.8,0.6,1.8,0.6,3v1.4c0,0.6,0.1,1.1,0.2,1.8c0.1,0.6,0.3,1.1,0.6,1.4v0.3
			h-3.8c-0.3-0.3-0.5-0.8-0.6-1.4s-0.1-1.3-0.1-2v-1.4c0-1-0.2-1.8-0.6-2.3c-0.4-0.6-0.9-0.8-1.7-0.8H102.8z M102.8,208.3h2.5
			c0.8,0,1.3-0.2,1.7-0.7c0.4-0.5,0.6-1.2,0.6-2.1c0-0.9-0.2-1.6-0.6-2.2c-0.4-0.5-1-0.8-1.7-0.8h-2.5V208.3z"/>
		<path class="st1" d="M123.5,215.1h-5l-1,4.3h-3.8l5.4-20.1h3.9l5.4,20.1h-3.8L123.5,215.1z M119.3,212h3.5l-1.7-7.1H121L119.3,212
			z"/>
		<path class="st1" d="M134.2,216.2h7v3.1h-10.7v-20.1h3.7V216.2z"/>
		<path class="st1" d="M153.8,210.6h-6.4v5.7h7.5v3.1h-11.3v-20.1h11.2v3.1h-7.5v5h6.4V210.6z"/>
	</g>
</g>
<g>
	<g>
		<g>
			
				<rect x="55.3" y="-14.5" transform="matrix(6.123234e-17 -1 1 6.123234e-17 35.6604 143.3062)" class="st2" width="68.3" height="136.6"/>
			
				<rect x="55.3" y="53.8" transform="matrix(6.123234e-17 -1 1 6.123234e-17 -32.6428 211.6094)" class="st0" width="68.3" height="136.6"/>
		</g>
	</g>
	<g>
		<path class="st3" d="M95,91.8c0,7.4,0,16.5,0,16.6c0,3.1-2.5,5.6-5.6,5.6c-3.1,0-5.6-2.5-5.6-5.6c0-0.2,0-0.5,0-0.7V91.8H80v16
			c0,0.2,0,0.4,0,0.6c0,5.2,4.2,9.4,9.4,9.4c5.2,0,9.4-4.2,9.4-9.4c0,0,0-9.2,0-16.6H95z"/>
		<path class="st3" d="M111.3,91.8c0,7.3,0,16.5,0,16.6c0,12.1-9.8,21.9-21.9,21.9c-11.9,0-21.6-9.5-21.9-21.3l0-0.2v-17h-3.8v17.4
			l0,0.2c0.5,13.7,11.9,24.6,25.7,24.6c14.2,0,25.7-11.5,25.7-25.7c0-0.1,0-9.3,0-16.6H111.3z"/>
		<path class="st3" d="M102.9,91.8c0,7.4,0,16.5,0,16.6c0,7.5-6.1,13.5-13.5,13.5c-7.5,0-13.5-6.1-13.5-13.5c0,0,0-0.2,0-0.3V91.8
			h-4.2v16.4l0,0.2l0,0.1c0.1,9.7,8,17.6,17.7,17.6c9.8,0,17.7-8,17.7-17.7c0-0.1,0-9.2,0-16.6H102.9z"/>
		<path class="st3" d="M116.3,47.4c0,0-0.1-0.1-0.3-0.3c-0.2-0.2-0.6-0.4-0.8-0.6c-0.2-0.2-0.4-0.5-0.6-0.6
			c-0.1-0.1-0.3-0.5-0.5-0.5c-0.1-0.1-0.3-0.7-0.3-0.8c0-0.1-0.1-0.3-0.2-0.3c-0.1,0-0.4-0.2-0.6-0.4c-0.2-0.2-0.6-0.6-0.6-0.6
			s-0.1-0.7-0.3-1.1c-0.2-0.4-0.3-0.6-0.3-0.7c-0.1-0.2-0.1-0.2-0.2-0.4c0,0-0.3,0-0.5,0.1c0,0-0.5-0.4-1-0.6
			c-0.5-0.3-1.1-0.6-1.3-0.6c-0.2-0.1-0.5-0.2-0.7-0.3c0,0-0.3,0-0.6,0c-0.2,0-0.9,0.1-1.2,0.1c-0.3,0-1.2,0.2-1.4,0.2
			c-0.4,0-0.5,0.1-1.1,0.2c0,0-0.5,0.1-0.7,0.2c-0.2,0.1-0.7,0.3-1.1,0.3c-0.4,0-0.8,0.1-1.3,0.1c-0.2,0-1,0.4-1.4,0.5
			c-0.2,0-0.4,0.1-0.4,0.1s0.1,0.3,0.3,0.3c0,0-0.1,0.2-0.4,0.4c-0.3,0.1-0.5,0.3-0.9,0.4c-0.4,0.1-0.9,0.4-1.1,0.5
			c0,0,0.1,0.2,0.3,0.4c0,0,0.1,0-0.3,0.2c-0.3,0.2-1,0.5-1.4,0.6c-0.3,0.2-0.8,0.4-1,0.5c-0.3,0.2-0.4,0.2-0.7,0.4
			c-0.3,0.2-0.1,0.2-0.1,0.2s0.2,0,0.4,0c0.2,0,0.3,0.1,0.3,0.1s0,0.1-0.1,0.2c-0.2,0.1-0.4,0.4-0.9,0.8c-0.3,0.2-0.5,0.4-0.8,0.6
			c-0.3,0.2-0.6,0.5-0.7,0.6l0.3,0.3l0,0.2c-0.1,0.1-0.3,0.2-0.5,0.3c-0.2,0.1-2.3,0.4-4.6,0.3c-3.9-0.1-4.9-0.5-6.9-0.6
			c-2-0.1-3.4,0.3-5.2,0.9c-0.4,0.1-0.6,0.2-0.8,0.3c-0.8,0.2-1.5,0.4-2.2,0.6c-2.5,1-6.9,4.6-8.1,5.1c-1.2,0.5-1.9,0.5-2.7,0.4
			c-0.9-0.1-1.2-0.3-1.2-0.3s-0.4-0.9-0.9-1.3c-0.7-0.5-2.3-1-2.3-1s-0.3,1.1,0.3,2.1c0.7,1.2,2,1.1,2.5,1.3
			c0.9,0.3,2.9,0.8,4.6,0.1c1.5-0.6,3.1-1.6,4.2-2.3c1.1-0.6,2.9-1.2,4.4-1.3c-0.1,0.3-0.1,0.5-0.2,0.7c-0.4,1.3-2,4-2.3,4.4
			c-0.4,0.5-1.8,2.3-2.1,2.5c-0.3,0.2-0.9,0.5-1.6,0.6c-0.8,0.2-3.3,0.4-3.3,0.4s-0.4,2.2-1,3.5C62.4,65,61.9,66,61.9,66
			s0.9,0.8,1.2,1.9c0.2,0.3,0.5,0.9,0.7,0.9h3.9c0,0,0.3-0.9-0.5-1.2c-0.4-0.2-0.3-0.3-1.3-0.7c-0.4-0.1-0.6-0.3-0.8-0.8
			C65,65.7,65,64.9,65,64.9s0.1-0.8,0.5-1c0.5-0.2,1.7,0.2,2.8,0c1.8-0.3,4.3-1.2,5.1-1.6c0.8-0.3,2.1-1.7,2.6-2
			c0.4-0.4,0.9-0.5,0.9-0.5s0.5,0.5,1.5,1.5c1,0.9,1.4,1.3,1.7,1.6c0.3,0.3,0.8,0.9,0.8,1.1c0.3,0.9,0.2,2.4,0.2,2.4s1.6,0.6,2.1,1
			c0.5,0.5,0.9,1.3,0.9,1.3l4.8,0c0.2-0.6-0.2-0.9-0.3-1c-0.2-0.2-0.4-0.6-0.8-0.7c-1.6-0.6-1.6-0.3-2.1-0.7
			c-0.3-0.3-1.1-0.8-1.3-1.1c-0.2-0.3-0.5-1.8-0.5-3.1c0-0.8-0.1-1.5-0.1-2c1.5-0.3,3.9-0.6,5.7,0.2c0.4,0.2,1.3,0.6,2.3,0.9
			c0.1,0.3,0.2,0.6,0.1,1.1c-0.1,1.3-1.4,2.9-1.4,2.9s0.6,1.6,0.8,1.8c0.2,0.2,0.8,0.7,1,1.1c0.1,0.2,0.3,0.6,0.3,0.6h4.1
			c0,0,0.3-0.8-0.3-1.1c-0.2-0.1-0.5-0.4-0.7-0.5c-1.1-0.5-1.2-0.3-1.6-0.7c-0.2-0.2-0.4-1-0.4-1s1.9-1.9,2.3-2.4
			c0.5-0.6,0.6-0.8,0.9-1.1c1.4-0.1,3-0.4,3.5-0.7c0.2-0.1,0.3-0.2,0.4-0.2c0.2,0.1,0.3,0.2,0.4,0.3c0.8,0.5,2.7,1.3,3.4,1.8
			c0.7,0.6,1.6,2.2,1.6,2.2s1.7,0.6,2.1,1.2c0.3,0.4,1.8,0.8,1.8,0.8s0.5,0,1.1,0.6c0.6,0.5,0.7,0.7,1.2,0.7c1,0.1,2.7,0.1,2.7,0.1
			s0.5-1-0.3-1.4c-0.8-0.4-0.1-0.7-1.9-1.3c-0.5-0.2-1.4-0.5-1.7-0.7c-0.3-0.2-1.8-2.4-2.6-3.3c-0.8-0.9-2.3-3-2.3-3l-0.3-0.8
			l0.1-0.6c0.1-0.1,0.2-0.2,0.3-0.3c0.3-0.3,0.7-0.7,0.8-1c0.3-0.6,0.2,0,0.4-0.3c0.1-0.2,0.7-0.5,0.9-0.7c0.2-0.1,0.5-0.5,0.5-0.5
			s0,0.2,0.1,0.5c0,0,0.2-0.1,0.4-0.4c0.2-0.3,0.2-0.3,0.5-0.6c0.3-0.3,0.5-0.9,0.7-1.3c0.2-0.4,0.3-0.5,0.4-0.6
			c0,0,0.1,0.3,0.2,0.5c0,0,0.2-0.2,0.3-0.4c0.1-0.2,0.1-0.4,0.3-0.7c0.1-0.2,0.2-0.5,0.4-0.6c0.1-0.1,0.4-0.2,0.7-0.2
			c0.2,0,0.5,0.1,0.7,0.2c0.2,0.1,0.4-0.1,0.5,0.2c0.2,0.2,0.4,0.3,0.4,0.3s0,0,0.2-0.1c0.2-0.1,0.2-0.1,0.4-0.2
			c0.2-0.1,0.2-0.2,0.3-0.3c0.2-0.1,0.2-0.3,0.3-0.5c0.1-0.2,0-0.4,0.1-0.5c0.1-0.1,0.4-0.1,0.5-0.4c0.1-0.3,0.1-0.3,0.1-0.4
			c0.1,0,0.1-0.2,0.1-0.2s0.3-0.3,0.4-0.5c0-0.2,0.1-0.3,0.2-0.4C116.8,48,116.7,47.7,116.3,47.4"/>
		<rect x="63.6" y="84.1" class="st3" width="51.4" height="3.9"/>
		<rect x="63.6" y="76.4" class="st3" width="51.4" height="3.9"/>
		<rect x="63.6" y="68.7" class="st3" width="51.4" height="3.9"/>
	</g>
</g>
<g>
	<g>
		<path class="st0" d="M80.6,241.8h1.7v1.8h-1.7v4h-2.2v-4h-5.9l-0.1-1.3l5.9-11.7h2.3V241.8z M74.6,241.8h3.7V234l-0.1,0l-0.2,0.5
			L74.6,241.8z"/>
		<path class="st0" d="M93.7,232.4c-1.6,2.2-2.6,4.3-3.2,6.2c-0.6,2-1,4.4-1.2,7.4l-0.1,1.6h-2.2L87,246c0.2-2.7,0.7-5.2,1.5-7.4
			s1.7-4.3,3-6.2h-7.3v-1.8h9.5V232.4z"/>
		<path class="st0" d="M101.6,230.3c0.5,0,1,0.1,1.4,0.2s0.9,0.3,1.2,0.5l-0.4,1.7c-0.3-0.2-0.7-0.4-1-0.5s-0.7-0.2-1.2-0.2
			c-0.9,0-1.6,0.5-2.2,1.4c-0.6,0.9-0.8,2.1-0.8,3.7v0.5c0.4-0.4,0.8-0.8,1.3-1c0.5-0.2,1.1-0.4,1.7-0.4c1.2,0,2.2,0.5,2.9,1.6
			c0.7,1.1,1.1,2.4,1.1,4.1c0,1.7-0.4,3.1-1.2,4.2c-0.8,1.1-1.9,1.7-3.2,1.7c-1.4,0-2.5-0.6-3.4-1.8s-1.3-2.9-1.3-5v-3.7
			c0-2.1,0.5-3.8,1.5-5.1C98.9,230.9,100.1,230.3,101.6,230.3z M101,238c-0.6,0-1.1,0.1-1.5,0.4c-0.4,0.3-0.7,0.7-0.9,1.2v1.6
			c0,1.5,0.2,2.7,0.7,3.6c0.5,0.9,1.1,1.3,1.8,1.3c0.7,0,1.2-0.4,1.6-1.2c0.4-0.8,0.6-1.8,0.6-2.9c0-1.2-0.2-2.1-0.6-2.8
			C102.3,238.4,101.7,238,101,238z"/>
	</g>
</g>
<rect x="40.4" y="217.8" transform="matrix(6.123234e-17 -1 1 6.123234e-17 -196.5625 283.4269)" class="st0" width="6" height="44.4"/>
<rect x="131.9" y="217.8" transform="matrix(6.123234e-17 -1 1 6.123234e-17 -105.0742 374.9153)" class="st0" width="6" height="44.4"/>
</svg>
