<?xml version="1.0" encoding="utf-8"?>
<!-- Generator: Adobe Illustrator 22.0.1, SVG Export Plug-In . SVG Version: 6.00 Build 0)  -->
<svg version="1.1" id="Calque_1" xmlns="http://www.w3.org/2000/svg" xmlns:xlink="http://www.w3.org/1999/xlink" x="0px" y="0px"
	 viewBox="0 0 368.5 255.1" style="enable-background:new 0 0 368.5 255.1;" xml:space="preserve">
<style type="text/css">
	.st0{fill:#0047BA;}
	.st1{fill:#1D1D1B;}
	.st2{fill:#122F62;}
	.st3{fill:#FFFFFF;}
</style>
<g>
	<path class="st0" d="M205.6,37.3c0-1.3-0.4-2.3-1.2-3c-0.8-0.7-2.3-1.5-4.4-2.2c-4.4-1.5-7.7-3-9.8-4.7S187,23.2,187,20
		c0-3.1,1.3-5.6,3.8-7.5c2.5-1.9,5.8-2.9,9.7-2.9c3.9,0,7,1,9.5,3.1c2.5,2.1,3.7,4.8,3.6,8.1l0,0.2h-7.9c0-1.5-0.5-2.7-1.4-3.6
		c-0.9-0.9-2.2-1.4-3.9-1.4c-1.6,0-2.9,0.4-3.8,1.1c-0.9,0.8-1.4,1.7-1.4,2.8c0,1.1,0.5,1.9,1.4,2.6s2.7,1.5,5.3,2.4
		c4,1.2,7,2.8,9,4.6c2,1.8,3,4.3,3,7.5c0,3.2-1.2,5.8-3.6,7.6c-2.4,1.8-5.6,2.7-9.5,2.7c-4,0-7.4-1-10.3-3.1
		c-2.9-2.1-4.3-5.1-4.2-9.1l0-0.2h7.9c0,2.1,0.5,3.6,1.6,4.5s2.7,1.4,4.9,1.4c1.7,0,2.9-0.4,3.8-1.1
		C205.2,39.3,205.6,38.4,205.6,37.3z"/>
	<path class="st0" d="M241.1,31.3h-13.7v9.2h16.1V47h-24.3V10.2h24.3v6.6h-16.2v7.9h13.7V31.3z"/>
	<path class="st0" d="M276,41.9c-1.2,1.5-2.9,2.8-5.2,3.9c-2.3,1.1-5.1,1.7-8.5,1.7c-4.3,0-7.8-1.4-10.5-4.2c-2.7-2.8-4-6.4-4-10.9
		v-7.7c0-4.4,1.3-8,3.9-10.9c2.6-2.8,6-4.2,10.2-4.2c4.5,0,7.9,1.1,10.1,3.3c2.2,2.2,3.5,5.2,3.8,9l0,0.2h-7.6
		c-0.3-1.9-0.9-3.4-1.8-4.4c-0.9-1-2.3-1.5-4.2-1.5s-3.4,0.8-4.6,2.4c-1.2,1.6-1.7,3.6-1.7,6.1v7.7c0,2.6,0.6,4.6,1.7,6.2
		c1.1,1.6,2.7,2.3,4.8,2.3c1.5,0,2.7-0.1,3.5-0.4s1.5-0.6,2-1v-5.8h-5.5v-5.7H276V41.9z"/>
	<path class="st0" d="M195.2,75.1c0-1-0.3-1.8-0.8-2.4c-0.5-0.6-1.4-1.2-2.7-1.7c-1.9-0.6-3.3-1.4-4.3-2.3c-1-1-1.5-2.2-1.5-3.8
		c0-1.6,0.6-3,1.7-4c1.1-1,2.5-1.6,4.3-1.6c1.8,0,3.3,0.6,4.4,1.8c1.1,1.2,1.7,2.7,1.6,4.4l0,0.1h-2.6c0-1.2-0.3-2.2-0.9-2.9
		c-0.6-0.8-1.4-1.1-2.5-1.1c-1,0-1.8,0.3-2.4,0.9c-0.6,0.6-0.8,1.4-0.8,2.4c0,0.9,0.3,1.6,0.9,2.2s1.6,1.2,2.9,1.6
		c1.8,0.6,3.2,1.4,4.1,2.4c0.9,1,1.4,2.3,1.4,3.9c0,1.7-0.6,3-1.7,4s-2.6,1.5-4.4,1.5c-1.8,0-3.3-0.5-4.6-1.6
		c-1.3-1.1-1.9-2.6-1.9-4.6l0-0.1h2.6c0,1.4,0.4,2.5,1.1,3.1c0.7,0.7,1.6,1,2.8,1c1,0,1.8-0.3,2.4-0.9
		C194.9,76.9,195.2,76.1,195.2,75.1z"/>
	<path class="st0" d="M213.2,74L213.2,74c0,2.2-0.5,3.8-1.5,4.9c-1,1.1-2.5,1.7-4.4,1.7c-1.9,0-3.5-0.7-4.6-2
		c-1.2-1.4-1.7-3.3-1.7-5.7v-5.7c0-2.4,0.6-4.4,1.7-5.7c1.1-1.4,2.7-2.1,4.6-2.1c1.9,0,3.4,0.6,4.4,1.7c1,1.1,1.6,2.7,1.6,4.9l0,0.1
		h-2.6c0-1.5-0.3-2.6-0.9-3.4c-0.5-0.7-1.4-1.1-2.6-1.1c-1.1,0-2,0.5-2.6,1.4c-0.6,1-0.9,2.3-0.9,4.1v5.8c0,1.8,0.3,3.2,1,4.1
		c0.6,1,1.5,1.4,2.7,1.4c1.1,0,2-0.3,2.5-1s0.8-1.8,0.8-3.4H213.2z"/>
	<path class="st0" d="M219.9,80.3h-2.7V59.6h2.7V80.3z"/>
	<path class="st0" d="M234.6,70.7h-7.3v7.4h8.5v2.2h-11.2V59.6h11.1v2.2h-8.4v6.7h7.3V70.7z"/>
	<path class="st0" d="M252.1,80.3h-2.7l-7.5-15.4l-0.1,0v15.4H239V59.6h2.7l7.5,15.4l0.1,0V59.6h2.7V80.3z"/>
	<path class="st0" d="M268.2,74L268.2,74c0,2.2-0.5,3.8-1.5,4.9c-1,1.1-2.5,1.7-4.4,1.7c-1.9,0-3.5-0.7-4.6-2
		c-1.2-1.4-1.7-3.3-1.7-5.7v-5.7c0-2.4,0.6-4.4,1.7-5.7c1.1-1.4,2.7-2.1,4.6-2.1c1.9,0,3.4,0.6,4.4,1.7c1,1.1,1.6,2.7,1.6,4.9l0,0.1
		h-2.6c0-1.5-0.3-2.6-0.9-3.4c-0.5-0.7-1.4-1.1-2.6-1.1c-1.1,0-2,0.5-2.6,1.4c-0.6,1-0.9,2.3-0.9,4.1v5.8c0,1.8,0.3,3.2,1,4.1
		c0.6,1,1.5,1.4,2.7,1.4c1.1,0,2-0.3,2.5-1s0.8-1.8,0.8-3.4H268.2z"/>
	<path class="st0" d="M282,70.7h-7.3v7.4h8.5v2.2h-11.2V59.6h11.1v2.2h-8.4v6.7h7.3V70.7z"/>
	<path class="st0" d="M295.4,75.1c0-1-0.3-1.8-0.8-2.4c-0.5-0.6-1.4-1.2-2.7-1.7c-1.9-0.6-3.3-1.4-4.3-2.3c-1-1-1.5-2.2-1.5-3.8
		c0-1.6,0.6-3,1.7-4c1.1-1,2.5-1.6,4.3-1.6c1.8,0,3.3,0.6,4.4,1.8c1.1,1.2,1.7,2.7,1.6,4.4l0,0.1h-2.6c0-1.2-0.3-2.2-0.9-2.9
		c-0.6-0.8-1.4-1.1-2.5-1.1c-1,0-1.8,0.3-2.4,0.9c-0.6,0.6-0.8,1.4-0.8,2.4c0,0.9,0.3,1.6,0.9,2.2s1.6,1.2,2.9,1.6
		c1.8,0.6,3.2,1.4,4.1,2.4c0.9,1,1.4,2.3,1.4,3.9c0,1.7-0.6,3-1.7,4s-2.6,1.5-4.4,1.5c-1.8,0-3.3-0.5-4.6-1.6
		c-1.3-1.1-1.9-2.6-1.9-4.6l0-0.1h2.6c0,1.4,0.4,2.5,1.1,3.1c0.7,0.7,1.6,1,2.8,1c1,0,1.8-0.3,2.4-0.9
		C295.1,76.9,295.4,76.1,295.4,75.1z"/>
	<path class="st0" d="M196.3,104H189v7.4h8.5v2.2h-11.2V92.9h11.1v2.2H189v6.7h7.3V104z M192.4,87.6h3.1l0,0.1l-3.2,3.7h-2.2
		L192.4,87.6z"/>
	<path class="st0" d="M212.3,107.3L212.3,107.3c0,2.2-0.5,3.8-1.5,4.9c-1,1.1-2.5,1.7-4.4,1.7c-1.9,0-3.5-0.7-4.6-2
		c-1.2-1.4-1.7-3.3-1.7-5.7v-5.7c0-2.4,0.6-4.4,1.7-5.7c1.1-1.4,2.7-2.1,4.6-2.1c1.9,0,3.4,0.6,4.4,1.7c1,1.1,1.6,2.7,1.6,4.9l0,0.1
		h-2.6c0-1.5-0.3-2.6-0.9-3.4c-0.5-0.7-1.4-1.1-2.6-1.1c-1.1,0-2,0.5-2.6,1.4c-0.6,1-0.9,2.3-0.9,4.1v5.8c0,1.8,0.3,3.2,1,4.1
		c0.6,1,1.5,1.4,2.7,1.4c1.1,0,2-0.3,2.5-1s0.8-1.8,0.8-3.4H212.3z"/>
	<path class="st0" d="M228.5,106.1c0,2.5-0.6,4.4-1.8,5.7c-1.2,1.4-2.8,2.1-4.9,2.1c-2,0-3.6-0.7-4.8-2.1c-1.2-1.4-1.8-3.3-1.8-5.7
		v-5.7c0-2.4,0.6-4.4,1.8-5.7c1.2-1.4,2.8-2.1,4.8-2.1c2,0,3.6,0.7,4.8,2.1s1.8,3.3,1.8,5.7V106.1z M225.8,100.4
		c0-1.8-0.3-3.2-1-4.1c-0.7-0.9-1.7-1.4-2.9-1.4c-1.2,0-2.2,0.5-2.8,1.4s-1,2.3-1,4.1v5.7c0,1.8,0.3,3.2,1,4.1
		c0.7,0.9,1.6,1.4,2.8,1.4c1.3,0,2.2-0.5,2.9-1.4s1-2.3,1-4.1V100.4z"/>
	<path class="st0" d="M245.4,113.6h-2.7l-7.5-15.4l-0.1,0v15.4h-2.7V92.9h2.7l7.5,15.4l0.1,0V92.9h2.7V113.6z"/>
	<path class="st0" d="M262.5,106.1c0,2.5-0.6,4.4-1.8,5.7c-1.2,1.4-2.8,2.1-4.9,2.1c-2,0-3.6-0.7-4.8-2.1c-1.2-1.4-1.8-3.3-1.8-5.7
		v-5.7c0-2.4,0.6-4.4,1.8-5.7c1.2-1.4,2.8-2.1,4.8-2.1c2,0,3.6,0.7,4.8,2.1s1.8,3.3,1.8,5.7V106.1z M259.7,100.4
		c0-1.8-0.3-3.2-1-4.1c-0.7-0.9-1.7-1.4-2.9-1.4c-1.2,0-2.2,0.5-2.8,1.4s-1,2.3-1,4.1v5.7c0,1.8,0.3,3.2,1,4.1
		c0.7,0.9,1.6,1.4,2.8,1.4c1.3,0,2.2-0.5,2.9-1.4s1-2.3,1-4.1V100.4z"/>
	<path class="st0" d="M269.8,92.9l4.6,16.9h0.1l4.6-16.9h3.5v20.7h-2.7v-8l0.2-8l-0.1,0l-4.7,15.9h-1.8l-4.7-15.9l-0.1,0l0.3,8v8
		h-2.7V92.9H269.8z"/>
	<path class="st0" d="M290,113.6h-2.7V92.9h2.7V113.6z"/>
	<path class="st0" d="M307.2,106.1c0,1.2-0.2,2.3-0.5,3.3s-0.8,1.8-1.3,2.4l3,3.3l-1.8,1.6l-3.1-3.5c-0.5,0.2-0.9,0.4-1.4,0.5
		c-0.5,0.1-1,0.2-1.6,0.2c-2,0-3.6-0.7-4.8-2.1c-1.2-1.4-1.8-3.3-1.8-5.7v-5.7c0-2.4,0.6-4.4,1.8-5.7s2.8-2.1,4.8-2.1
		c2,0,3.6,0.7,4.8,2.1c1.2,1.4,1.8,3.3,1.8,5.7V106.1z M304.5,100.4c0-1.8-0.3-3.2-1-4.1c-0.7-0.9-1.7-1.4-2.9-1.4
		c-1.2,0-2.2,0.5-2.8,1.4s-1,2.3-1,4.1v5.7c0,1.8,0.3,3.2,1,4.1c0.7,0.9,1.6,1.4,2.8,1.4c1.3,0,2.2-0.5,2.9-1.4s1-2.3,1-4.1V100.4z"
		/>
	<path class="st0" d="M324,92.9v14.4c0,2.1-0.6,3.8-1.8,4.9c-1.2,1.1-2.7,1.7-4.6,1.7c-1.9,0-3.4-0.6-4.5-1.7
		c-1.1-1.1-1.7-2.8-1.7-4.9V92.9h2.7v14.4c0,1.5,0.3,2.6,0.9,3.3s1.5,1.1,2.6,1.1c1.1,0,2-0.4,2.6-1.1c0.6-0.7,1-1.9,1-3.4V92.9H324
		z"/>
	<path class="st0" d="M338.2,104h-7.3v7.4h8.5v2.2h-11.2V92.9h11.1v2.2h-8.4v6.7h7.3V104z"/>
	<path class="st0" d="M351.6,108.4c0-1-0.3-1.8-0.8-2.4c-0.5-0.6-1.4-1.2-2.7-1.7c-1.9-0.6-3.3-1.4-4.3-2.3c-1-1-1.5-2.2-1.5-3.8
		c0-1.6,0.6-3,1.7-4c1.1-1,2.5-1.6,4.3-1.6c1.8,0,3.3,0.6,4.4,1.8c1.1,1.2,1.7,2.7,1.6,4.4l0,0.1h-2.6c0-1.2-0.3-2.2-0.9-2.9
		c-0.6-0.8-1.4-1.1-2.5-1.1c-1,0-1.8,0.3-2.4,0.9c-0.6,0.6-0.8,1.4-0.8,2.4c0,0.9,0.3,1.6,0.9,2.2s1.6,1.2,2.9,1.6
		c1.8,0.6,3.2,1.4,4.1,2.4c0.9,1,1.4,2.3,1.4,3.9c0,1.7-0.6,3-1.7,4s-2.6,1.5-4.4,1.5c-1.8,0-3.3-0.5-4.6-1.6
		c-1.3-1.1-1.9-2.6-1.9-4.6l0-0.1h2.6c0,1.4,0.4,2.5,1.1,3.1c0.7,0.7,1.6,1,2.8,1c1,0,1.8-0.3,2.4-0.9
		C351.3,110.2,351.6,109.4,351.6,108.4z"/>
	<path class="st0" d="M198.6,144c-0.5,0.8-1.2,1.6-2.2,2.2c-1,0.7-2.3,1-3.9,1c-2.1,0-3.7-0.7-5-2c-1.3-1.3-1.9-3.2-1.9-5.6v-6.1
		c0-2.4,0.6-4.3,1.8-5.6c1.2-1.3,2.8-2,4.8-2c2,0,3.5,0.5,4.6,1.6c1.1,1.1,1.6,2.6,1.7,4.5l0,0.1h-2.6c0-1.3-0.4-2.3-1-3
		c-0.6-0.7-1.5-1-2.7-1c-1.2,0-2.1,0.5-2.8,1.4c-0.7,0.9-1,2.2-1,4v6.2c0,1.8,0.4,3.1,1.1,4s1.8,1.4,3,1.4c0.9,0,1.7-0.2,2.2-0.5
		s0.9-0.8,1.2-1.3v-4.7h-3.4v-2.1h6.1V144z"/>
	<path class="st0" d="M213.1,137.3h-7.3v7.4h8.5v2.2h-11.2v-20.7h11.1v2.2h-8.4v6.7h7.3V137.3z"/>
	<path class="st0" d="M226.6,141.7c0-1-0.3-1.8-0.8-2.4c-0.5-0.6-1.4-1.2-2.7-1.7c-1.9-0.6-3.3-1.4-4.3-2.3c-1-1-1.5-2.2-1.5-3.8
		c0-1.6,0.6-3,1.7-4c1.1-1,2.5-1.6,4.3-1.6c1.8,0,3.3,0.6,4.4,1.8c1.1,1.2,1.7,2.7,1.6,4.4l0,0.1h-2.6c0-1.2-0.3-2.2-0.9-2.9
		c-0.6-0.8-1.4-1.1-2.5-1.1c-1,0-1.8,0.3-2.4,0.9c-0.6,0.6-0.8,1.4-0.8,2.4c0,0.9,0.3,1.6,0.9,2.2s1.6,1.2,2.9,1.6
		c1.8,0.6,3.2,1.4,4.1,2.4c0.9,1,1.4,2.3,1.4,3.9c0,1.7-0.6,3-1.7,4s-2.6,1.5-4.4,1.5c-1.8,0-3.3-0.5-4.6-1.6
		c-1.3-1.1-1.9-2.6-1.9-4.6l0-0.1h2.6c0,1.4,0.4,2.5,1.1,3.1c0.7,0.7,1.6,1,2.8,1c1,0,1.8-0.3,2.4-0.9
		C226.3,143.5,226.6,142.7,226.6,141.7z"/>
	<path class="st0" d="M244.3,128.4h-5.1v18.5h-2.7v-18.5h-5v-2.2h12.8V128.4z"/>
	<path class="st0" d="M250.3,146.9h-2.7v-20.7h2.7V146.9z"/>
	<path class="st0" d="M267.6,139.4c0,2.5-0.6,4.4-1.8,5.7c-1.2,1.4-2.8,2.1-4.9,2.1c-2,0-3.6-0.7-4.8-2.1c-1.2-1.4-1.8-3.3-1.8-5.7
		v-5.7c0-2.4,0.6-4.4,1.8-5.7c1.2-1.4,2.8-2.1,4.8-2.1c2,0,3.6,0.7,4.8,2.1c1.2,1.4,1.8,3.3,1.8,5.7V139.4z M264.8,133.7
		c0-1.8-0.3-3.2-1-4.1c-0.7-0.9-1.7-1.4-2.9-1.4c-1.2,0-2.2,0.5-2.8,1.4s-1,2.3-1,4.1v5.7c0,1.8,0.3,3.2,1,4.1
		c0.7,0.9,1.6,1.4,2.8,1.4c1.3,0,2.2-0.5,2.9-1.4s1-2.3,1-4.1V133.7z"/>
	<path class="st0" d="M284.4,146.9h-2.7l-7.5-15.4l-0.1,0v15.4h-2.7v-20.7h2.7l7.5,15.4l0.1,0v-15.3h2.7V146.9z"/>
	<path class="st1" d="M194.8,161.3v10.1c0,1.6-0.4,2.8-1.3,3.7s-2,1.3-3.5,1.3s-2.6-0.4-3.5-1.3c-0.9-0.9-1.3-2.1-1.3-3.6v-10.1h2.7
		v10.1c0,0.9,0.2,1.6,0.5,2c0.4,0.4,0.9,0.6,1.5,0.6c0.7,0,1.2-0.2,1.5-0.6s0.5-1.1,0.5-2v-10.1H194.8z"/>
	<path class="st1" d="M207.1,176.1h-2.7l-4.3-9.5l-0.1,0v9.4h-2.8v-14.8h2.8l4.3,9.5l0.1,0v-9.4h2.7V176.1z"/>
	<path class="st1" d="M212.6,176.1h-2.7v-14.8h2.7V176.1z"/>
	<path class="st1" d="M219.6,172.3l0.1,0.6h0.1l0.1-0.5l2.3-11.1h2.9l-3.9,14.8h-2.9l-3.9-14.8h2.9L219.6,172.3z"/>
	<path class="st1" d="M234.2,169.6h-4.7v4.2h5.6v2.3h-8.3v-14.8h8.3v2.3h-5.5v3.7h4.7V169.6z"/>
	<path class="st1" d="M239.7,170.2v5.9H237v-14.8h4.6c1.4,0,2.5,0.4,3.3,1.2c0.8,0.8,1.2,1.8,1.2,3.2c0,0.8-0.2,1.4-0.5,2
		c-0.3,0.6-0.8,1-1.4,1.3c0.7,0.3,1.2,0.7,1.6,1.3c0.3,0.6,0.5,1.3,0.5,2.2v1c0,0.4,0,0.8,0.1,1.3c0.1,0.5,0.2,0.8,0.5,1v0.2h-2.8
		c-0.2-0.2-0.4-0.6-0.4-1.1c-0.1-0.5-0.1-1-0.1-1.5v-1c0-0.7-0.1-1.3-0.4-1.7s-0.7-0.6-1.2-0.6H239.7z M239.7,167.9h1.8
		c0.6,0,1-0.2,1.3-0.5c0.3-0.4,0.4-0.9,0.4-1.5c0-0.7-0.1-1.2-0.4-1.6c-0.3-0.4-0.7-0.6-1.3-0.6h-1.8V167.9z"/>
	<path class="st1" d="M254.9,172.2c0-0.6-0.1-1-0.4-1.4s-0.8-0.7-1.5-1c-1.5-0.5-2.6-1.1-3.3-1.8s-1.1-1.6-1.1-2.9
		c0-1.2,0.4-2.2,1.3-3c0.8-0.8,1.9-1.1,3.3-1.1c1.3,0,2.4,0.4,3.3,1.3c0.8,0.9,1.2,1.9,1.2,3.2l0,0.1H255c0-0.7-0.2-1.2-0.5-1.6
		c-0.3-0.4-0.8-0.6-1.4-0.6c-0.5,0-1,0.2-1.3,0.5c-0.3,0.3-0.5,0.8-0.5,1.3c0,0.5,0.2,0.9,0.5,1.2s0.9,0.7,1.8,1.1
		c1.3,0.5,2.3,1.1,3,1.8c0.7,0.7,1,1.7,1,3c0,1.3-0.4,2.3-1.2,3c-0.8,0.7-1.9,1.1-3.2,1.1c-1.3,0-2.5-0.4-3.5-1.2
		c-1-0.8-1.5-2-1.4-3.5l0-0.1h2.7c0,0.9,0.2,1.6,0.6,2s0.9,0.6,1.7,0.6c0.6,0,1-0.2,1.3-0.5S254.9,172.8,254.9,172.2z"/>
	<path class="st1" d="M262.8,176.1H260v-14.8h2.7V176.1z"/>
	<path class="st1" d="M273.5,163.6h-3.2v12.5h-2.7v-12.5h-3.1v-2.3h9.1V163.6z"/>
	<path class="st1" d="M282.8,169.6h-4.7v4.2h5.6v2.3h-8.3v-14.8h8.3v2.3h-5.5v3.7h4.7V169.6z M279.6,157.5h2.9l0,0.1l-2.4,2.6
		l-2.2,0L279.6,157.5z"/>
	<path class="st1" d="M290.4,176.1v-14.8h4.2c1.4,0,2.6,0.6,3.6,1.7c0.9,1.1,1.4,2.6,1.4,4.4v2.5c0,1.8-0.5,3.3-1.4,4.4
		c-0.9,1.1-2.1,1.7-3.6,1.7H290.4z M293.2,163.6v10.2h1.3c0.8,0,1.4-0.4,1.8-1.1c0.4-0.7,0.6-1.6,0.6-2.8v-2.5
		c0-1.2-0.2-2.1-0.6-2.8c-0.4-0.7-1-1-1.8-1H293.2z"/>
	<path class="st1" d="M309.5,169.6h-4.7v4.2h5.6v2.3H302v-14.8h8.3v2.3h-5.5v3.7h4.7V169.6z"/>
	<path class="st1" d="M319.8,173.8h5.1v2.3h-7.9v-14.8h2.8V173.8z"/>
	<path class="st1" d="M328.9,167.6L328.9,167.6l2.4-6.3h3l-4,9.5v5.3h-2.7v-5.4l-4-9.4h3L328.9,167.6z"/>
	<path class="st1" d="M345.1,170.8c0,1.7-0.4,3.1-1.3,4.1c-0.9,1-2.1,1.5-3.6,1.5c-1.5,0-2.7-0.5-3.6-1.5c-0.9-1-1.3-2.3-1.3-4.1
		v-4.1c0-1.7,0.4-3.1,1.3-4.1c0.9-1,2.1-1.5,3.6-1.5c1.5,0,2.7,0.5,3.6,1.5c0.9,1,1.4,2.3,1.4,4.1V170.8z M342.3,166.6
		c0-1.1-0.2-1.9-0.6-2.4c-0.4-0.5-0.9-0.8-1.6-0.8c-0.7,0-1.3,0.3-1.6,0.8c-0.4,0.5-0.5,1.3-0.5,2.4v4.2c0,1.1,0.2,1.9,0.6,2.4
		c0.4,0.5,0.9,0.8,1.6,0.8c0.7,0,1.2-0.3,1.6-0.8c0.4-0.5,0.6-1.3,0.6-2.4V166.6z"/>
	<path class="st1" d="M357.2,176.1h-2.7l-4.3-9.5l-0.1,0v9.4h-2.8v-14.8h2.8l4.3,9.5l0.1,0v-9.4h2.7V176.1z"/>
</g>
<g>
	<g>
		<path class="st1" d="M53.2,178.8h-6.6v5.9h7.8v3.2H42.7v-20.8h11.7v3.2h-7.8v5.2h6.6V178.8z M48.6,161.8h4.1l0,0.1l-3.4,3.7
			l-3.1,0L48.6,161.8z"/>
		<path class="st1" d="M69.5,181.2L69.5,181.2c0.1,2.4-0.5,4.1-1.5,5.3c-1,1.2-2.6,1.7-4.6,1.7s-3.7-0.7-4.9-2
			c-1.2-1.3-1.8-3.2-1.8-5.6v-6.2c0-2.4,0.6-4.3,1.8-5.6c1.2-1.3,2.8-2,4.7-2c2.1,0,3.7,0.6,4.8,1.8c1.1,1.2,1.6,2.9,1.7,5.2l0,0.1
			h-3.7c0.1-1.4-0.1-2.4-0.5-3c-0.4-0.6-1.1-0.9-2.1-0.9c-0.9,0-1.5,0.4-2,1.1s-0.7,1.8-0.7,3.2v6.3c0,1.5,0.2,2.6,0.7,3.3
			s1.2,1.1,2.2,1.1c0.9,0,1.6-0.3,1.9-0.9c0.4-0.6,0.5-1.5,0.5-2.9H69.5z"/>
		<path class="st1" d="M85.9,180.4c0,2.4-0.6,4.3-1.9,5.7c-1.3,1.4-2.9,2.1-5,2.1s-3.8-0.7-5-2.1c-1.2-1.4-1.9-3.3-1.9-5.7v-5.8
			c0-2.4,0.6-4.3,1.9-5.7c1.3-1.4,2.9-2.1,5-2.1c2.1,0,3.8,0.7,5,2.1c1.3,1.4,1.9,3.3,1.9,5.7V180.4z M82.1,174.6
			c0-1.5-0.3-2.6-0.8-3.4c-0.5-0.8-1.3-1.1-2.3-1.1c-1,0-1.8,0.4-2.3,1.1c-0.5,0.8-0.8,1.9-0.8,3.4v5.9c0,1.5,0.3,2.6,0.8,3.4
			c0.5,0.8,1.3,1.1,2.3,1.1c1,0,1.8-0.4,2.3-1.1c0.5-0.8,0.8-1.9,0.8-3.4V174.6z"/>
		<path class="st1" d="M93,184.7h7.2v3.2H89.1v-20.8H93V184.7z"/>
		<path class="st1" d="M113.3,178.8h-6.6v5.9h7.8v3.2h-11.7v-20.8h11.7v3.2h-7.8v5.2h6.6V178.8z"/>
		<path class="st1" d="M13.9,217.7v-20.8h6c2,0,3.7,0.8,5,2.4c1.3,1.6,2,3.7,2,6.2v3.5c0,2.5-0.7,4.6-2,6.2c-1.3,1.6-3,2.4-5,2.4
			H13.9z M17.7,200.2v14.3h1.9c1.1,0,1.9-0.5,2.5-1.5c0.6-1,0.9-2.3,0.9-3.9v-3.5c0-1.6-0.3-2.9-0.9-3.9c-0.6-1-1.4-1.5-2.5-1.5
			H17.7z"/>
		<path class="st1" d="M43.5,210.3c0,2.4-0.6,4.3-1.9,5.7c-1.3,1.4-2.9,2.1-5,2.1c-2.1,0-3.8-0.7-5-2.1c-1.2-1.4-1.9-3.3-1.9-5.7
			v-5.8c0-2.4,0.6-4.3,1.9-5.7c1.3-1.4,2.9-2.1,5-2.1c2.1,0,3.8,0.7,5,2.1c1.3,1.4,1.9,3.3,1.9,5.7V210.3z M39.7,204.4
			c0-1.5-0.3-2.6-0.8-3.4c-0.5-0.8-1.3-1.1-2.3-1.1c-1,0-1.8,0.4-2.3,1.1c-0.5,0.8-0.8,1.9-0.8,3.4v5.9c0,1.5,0.3,2.6,0.8,3.4
			c0.5,0.8,1.3,1.1,2.3,1.1c1,0,1.8-0.4,2.3-1.1c0.5-0.8,0.8-1.9,0.8-3.4V204.4z"/>
		<path class="st1" d="M59.1,211L59.1,211c0.1,2.4-0.5,4.1-1.5,5.3c-1,1.2-2.6,1.7-4.6,1.7s-3.7-0.7-4.9-2c-1.2-1.3-1.8-3.2-1.8-5.6
			v-6.2c0-2.4,0.6-4.3,1.8-5.6c1.2-1.3,2.8-2,4.7-2c2.1,0,3.7,0.6,4.8,1.8s1.6,2.9,1.7,5.2l0,0.1h-3.7c0.1-1.4-0.1-2.4-0.5-3
			c-0.4-0.6-1.1-0.9-2.1-0.9c-0.9,0-1.5,0.4-2,1.1c-0.5,0.7-0.7,1.8-0.7,3.2v6.3c0,1.5,0.2,2.6,0.7,3.3c0.5,0.7,1.2,1.1,2.2,1.1
			c0.9,0,1.6-0.3,1.9-0.9c0.4-0.6,0.5-1.5,0.5-2.9H59.1z"/>
		<path class="st1" d="M73.5,200.2H69v17.6h-3.9v-17.6h-4.4v-3.2h12.7V200.2z"/>
		<path class="st1" d="M89,210.3c0,2.4-0.6,4.3-1.9,5.7c-1.3,1.4-2.9,2.1-5,2.1s-3.8-0.7-5-2.1c-1.2-1.4-1.9-3.3-1.9-5.7v-5.8
			c0-2.4,0.6-4.3,1.9-5.7c1.3-1.4,2.9-2.1,5-2.1c2.1,0,3.8,0.7,5,2.1c1.3,1.4,1.9,3.3,1.9,5.7V210.3z M85.1,204.4
			c0-1.5-0.3-2.6-0.8-3.4c-0.5-0.8-1.3-1.1-2.3-1.1c-1,0-1.8,0.4-2.3,1.1c-0.5,0.8-0.8,1.9-0.8,3.4v5.9c0,1.5,0.3,2.6,0.8,3.4
			c0.5,0.8,1.3,1.1,2.3,1.1c1,0,1.8-0.4,2.3-1.1c0.5-0.8,0.8-1.9,0.8-3.4V204.4z"/>
		<path class="st1" d="M96,209.4v8.3h-3.9v-20.8h6.5c1.9,0,3.5,0.5,4.6,1.6c1.1,1.1,1.7,2.6,1.7,4.5c0,1.1-0.2,2-0.7,2.8
			c-0.5,0.8-1.1,1.4-2,1.9c1,0.4,1.7,1,2.2,1.8c0.4,0.8,0.7,1.9,0.7,3.1v1.5c0,0.6,0.1,1.2,0.2,1.8c0.1,0.7,0.3,1.1,0.7,1.4v0.3h-4
			c-0.3-0.3-0.5-0.8-0.6-1.5c-0.1-0.7-0.1-1.4-0.1-2.1v-1.4c0-1-0.2-1.8-0.6-2.4c-0.4-0.6-1-0.9-1.7-0.9H96z M96,206.2h2.6
			c0.8,0,1.4-0.3,1.8-0.8c0.4-0.5,0.6-1.2,0.6-2.2c0-1-0.2-1.7-0.6-2.3c-0.4-0.6-1-0.8-1.8-0.8H96V206.2z"/>
		<path class="st1" d="M117.5,213.3h-5.2l-1.1,4.4h-3.9l5.6-20.8h4l5.6,20.8h-3.9L117.5,213.3z M113.1,210h3.6l-1.8-7.4h-0.1
			L113.1,210z"/>
		<path class="st1" d="M128.6,214.5h7.2v3.2h-11.1v-20.8h3.9V214.5z"/>
		<path class="st1" d="M149,208.6h-6.6v5.9h7.8v3.2h-11.7v-20.8h11.7v3.2h-7.8v5.2h6.6V208.6z"/>
	</g>
</g>
<g>
	<g>
		<path class="st0" d="M72.9,241h1.8v1.9h-1.8v4.2h-2.3v-4.2h-6.1l-0.1-1.4l6.1-12.2h2.4V241z M66.7,241h3.9v-8.1l-0.1,0l-0.2,0.5
			L66.7,241z"/>
		<path class="st0" d="M86.1,233.9c0,0.9-0.2,1.8-0.6,2.5c-0.4,0.7-1,1.2-1.7,1.6c0.8,0.4,1.5,0.9,2,1.7c0.5,0.8,0.7,1.6,0.7,2.6
			c0,1.6-0.4,2.9-1.3,3.7c-0.9,0.9-2,1.3-3.4,1.3c-1.4,0-2.6-0.4-3.5-1.3c-0.9-0.9-1.3-2.1-1.3-3.7c0-1,0.2-1.9,0.7-2.6
			c0.5-0.8,1.1-1.3,2-1.7c-0.7-0.3-1.3-0.9-1.7-1.6c-0.4-0.7-0.6-1.5-0.6-2.4c0-1.5,0.4-2.7,1.2-3.6c0.8-0.9,1.9-1.3,3.2-1.3
			c1.3,0,2.4,0.4,3.2,1.3C85.7,231.2,86.1,232.4,86.1,233.9z M84.1,242.2c0-1-0.2-1.8-0.7-2.4c-0.5-0.6-1-0.9-1.7-0.9
			c-0.7,0-1.3,0.3-1.7,0.9c-0.4,0.6-0.7,1.4-0.7,2.4c0,1,0.2,1.8,0.7,2.4c0.4,0.6,1,0.9,1.8,0.9c0.7,0,1.3-0.3,1.7-0.9
			C83.9,244,84.1,243.2,84.1,242.2z M83.7,234c0-0.9-0.2-1.6-0.6-2.2s-0.9-0.9-1.5-0.9c-0.6,0-1.1,0.3-1.5,0.8s-0.5,1.3-0.5,2.2
			c0,0.9,0.2,1.7,0.6,2.2c0.4,0.5,0.9,0.8,1.5,0.8c0.6,0,1.1-0.3,1.5-0.8C83.6,235.6,83.7,234.9,83.7,234z"/>
		<path class="st0" d="M94.8,229.1c0.5,0,1,0.1,1.5,0.2c0.5,0.1,0.9,0.3,1.3,0.6l-0.5,1.8c-0.3-0.2-0.7-0.4-1.1-0.5
			c-0.4-0.1-0.8-0.2-1.2-0.2c-0.9,0-1.7,0.5-2.3,1.4c-0.6,1-0.9,2.2-0.9,3.8v0.5c0.4-0.5,0.8-0.8,1.4-1.1c0.5-0.3,1.1-0.4,1.7-0.4
			c1.3,0,2.3,0.6,3,1.7c0.7,1.1,1.1,2.5,1.1,4.2c0,1.8-0.4,3.3-1.3,4.4c-0.8,1.1-2,1.7-3.3,1.7c-1.4,0-2.6-0.6-3.5-1.9
			c-0.9-1.2-1.4-3-1.4-5.2v-3.8c0-2.2,0.5-4,1.6-5.3C91.9,229.7,93.2,229.1,94.8,229.1z M94.2,237.1c-0.6,0-1.1,0.1-1.5,0.4
			s-0.8,0.7-1,1.2v1.6c0,1.6,0.2,2.8,0.7,3.7s1.1,1.3,1.9,1.3c0.7,0,1.2-0.4,1.7-1.2c0.4-0.8,0.6-1.8,0.6-3c0-1.2-0.2-2.2-0.6-2.9
			S94.9,237.1,94.2,237.1z"/>
	</g>
</g>
<rect x="31.2" y="216.1" transform="matrix(6.123234e-17 -1 1 6.123234e-17 -204.7809 273.5123)" class="st0" width="6.2" height="46.1"/>
<rect x="126.2" y="216.1" transform="matrix(6.123234e-17 -1 1 6.123234e-17 -109.7858 368.5075)" class="st0" width="6.2" height="46.1"/>
<g>
	<g>
		<g>
			
				<rect x="47" y="-27.6" transform="matrix(6.123234e-17 -1 1 6.123234e-17 39.1993 125.7673)" class="st2" width="70.9" height="141.8"/>
			
				<rect x="47" y="43.3" transform="matrix(6.123234e-17 -1 1 6.123234e-17 -31.722 196.6886)" class="st0" width="70.9" height="141.8"/>
		</g>
	</g>
	<g>
		<path class="st3" d="M88.2,82.7c0,7.6,0,17.2,0,17.2c0,3.2-2.6,5.8-5.8,5.8c-3.2,0-5.8-2.6-5.8-5.8c0-0.2,0-0.5,0-0.7V82.7h-3.9
			v16.6c0,0.2,0,0.4,0,0.6c0,5.4,4.4,9.7,9.7,9.7c5.4,0,9.7-4.4,9.7-9.7c0,0,0-9.6,0-17.2H88.2z"/>
		<path class="st3" d="M105.2,82.7c0,7.6,0,17.1,0,17.2c0,12.5-10.2,22.8-22.8,22.8c-12.3,0-22.4-9.9-22.7-22.1l0-0.2V82.7h-3.9
			v18.1l0,0.2c0.6,14.2,12.3,25.6,26.7,25.6c14.7,0,26.7-12,26.7-26.7c0-0.1,0-9.6,0-17.2H105.2z"/>
		<path class="st3" d="M96.4,82.7c0,7.6,0,17.2,0,17.2c0,7.8-6.3,14.1-14.1,14.1c-7.8,0-14.1-6.3-14.1-14.1c0,0,0-0.2,0-0.4V82.7
			h-4.4v17l0,0.2l0,0.1c0.1,10.1,8.3,18.2,18.4,18.2c10.2,0,18.4-8.3,18.4-18.4c0-0.1,0-9.6,0-17.2H96.4z"/>
		<path class="st3" d="M110.3,36.6c0,0-0.1-0.2-0.3-0.3c-0.2-0.2-0.6-0.5-0.8-0.7c-0.2-0.2-0.5-0.5-0.6-0.6
			c-0.1-0.1-0.4-0.5-0.5-0.6c-0.1-0.1-0.3-0.7-0.3-0.8c0-0.1-0.1-0.3-0.3-0.4c-0.1,0-0.4-0.2-0.6-0.4c-0.2-0.2-0.7-0.6-0.7-0.6
			s-0.1-0.8-0.3-1.2c-0.2-0.4-0.3-0.6-0.4-0.7c-0.1-0.2-0.1-0.2-0.2-0.4c0,0-0.3,0-0.5,0.1c0,0-0.5-0.4-1-0.7
			c-0.5-0.3-1.1-0.6-1.3-0.7c-0.2-0.1-0.6-0.2-0.7-0.4c0,0-0.4,0-0.6,0c-0.2,0-0.9,0.1-1.2,0.2c-0.4,0-1.3,0.2-1.5,0.2
			c-0.4,0-0.5,0.1-1.2,0.2c0,0-0.5,0.1-0.7,0.2c-0.2,0.1-0.7,0.3-1.1,0.3c-0.4,0.1-0.9,0.1-1.4,0.1c-0.2,0-1.1,0.4-1.5,0.5
			c-0.2,0-0.4,0.1-0.4,0.1s0.1,0.3,0.3,0.3c0,0-0.1,0.3-0.4,0.4c-0.3,0.1-0.6,0.3-0.9,0.4c-0.4,0.1-1,0.4-1.1,0.5
			c0,0,0.1,0.2,0.4,0.4c0,0,0.1,0-0.3,0.2c-0.3,0.2-1.1,0.5-1.4,0.6c-0.4,0.2-0.8,0.4-1.1,0.5c-0.3,0.2-0.4,0.2-0.7,0.4
			c-0.3,0.2-0.2,0.2-0.2,0.2s0.2,0,0.4,0.1c0.2,0,0.3,0.1,0.3,0.1s0,0.1-0.1,0.3c-0.2,0.1-0.4,0.4-0.9,0.8c-0.3,0.2-0.5,0.4-0.8,0.6
			c-0.3,0.2-0.6,0.6-0.7,0.6l0.3,0.3l0,0.2c-0.1,0.1-0.3,0.2-0.5,0.3c-0.2,0.1-2.4,0.4-4.8,0.4c-4-0.1-5.1-0.6-7.1-0.7
			c-2-0.1-3.6,0.4-5.4,0.9c-0.4,0.1-0.7,0.2-0.9,0.3c-0.8,0.2-1.6,0.4-2.3,0.7c-2.6,1-7.1,4.7-8.4,5.3c-1.2,0.5-2,0.6-2.8,0.4
			c-0.9-0.1-1.2-0.3-1.2-0.3s-0.5-1-1-1.4c-0.7-0.5-2.3-1.1-2.3-1.1s-0.3,1.1,0.3,2.2c0.7,1.3,2.1,1.2,2.6,1.4
			c0.9,0.4,3,0.8,4.8,0.1c1.6-0.6,3.2-1.7,4.4-2.4c1.2-0.6,3-1.2,4.6-1.4c-0.1,0.3-0.2,0.5-0.2,0.8c-0.4,1.3-2,4.1-2.4,4.6
			c-0.4,0.5-1.9,2.4-2.1,2.6c-0.3,0.2-0.9,0.5-1.7,0.6c-0.9,0.2-3.4,0.4-3.4,0.4s-0.4,2.3-1,3.6c-0.2,0.6-0.8,1.7-0.8,1.7
			s0.9,0.9,1.2,2c0.2,0.3,0.5,0.9,0.7,0.9h4.1c0,0,0.3-1-0.5-1.3c-0.4-0.2-0.4-0.4-1.3-0.7c-0.4-0.1-0.6-0.3-0.8-0.8
			C57,55.7,57,54.8,57,54.8s0.1-0.8,0.6-1c0.5-0.2,1.7,0.2,2.9,0c1.8-0.3,4.4-1.2,5.3-1.6c0.8-0.3,2.2-1.7,2.7-2.1
			c0.4-0.4,0.9-0.5,0.9-0.5s0.5,0.6,1.6,1.5c1.1,0.9,1.4,1.4,1.8,1.7c0.4,0.3,0.8,0.9,0.9,1.2c0.3,0.9,0.2,2.5,0.2,2.5
			s1.7,0.6,2.2,1.1c0.5,0.5,0.9,1.4,0.9,1.4l5,0c0.2-0.6-0.2-0.9-0.3-1c-0.2-0.2-0.4-0.6-0.9-0.7c-1.7-0.6-1.7-0.4-2.1-0.7
			c-0.3-0.3-1.2-0.8-1.4-1.2c-0.2-0.3-0.5-1.9-0.5-3.2c0-0.8-0.1-1.6-0.1-2c1.6-0.3,4-0.7,5.9,0.2c0.4,0.2,1.4,0.6,2.4,1
			c0.1,0.3,0.2,0.6,0.1,1.2c-0.1,1.3-1.4,3-1.4,3s0.7,1.6,0.9,1.9c0.2,0.2,0.8,0.7,1,1.1c0.1,0.2,0.3,0.6,0.3,0.6H90
			c0,0,0.3-0.8-0.3-1.1c-0.3-0.1-0.5-0.4-0.8-0.6c-1.1-0.5-1.2-0.3-1.7-0.7c-0.3-0.2-0.4-1-0.4-1s2-2,2.4-2.5
			c0.5-0.6,0.7-0.9,0.9-1.2c1.5-0.1,3.1-0.4,3.6-0.7c0.2-0.1,0.3-0.2,0.4-0.3c0.2,0.1,0.3,0.2,0.5,0.3c0.8,0.5,2.8,1.3,3.5,1.9
			c0.7,0.6,1.7,2.3,1.7,2.3s1.7,0.7,2.1,1.2c0.3,0.4,1.8,0.8,1.8,0.8s0.5,0,1.1,0.6c0.6,0.6,0.7,0.7,1.2,0.8c1,0.1,2.8,0.1,2.8,0.1
			s0.5-1.1-0.3-1.5c-0.8-0.4-0.1-0.7-2-1.4c-0.5-0.2-1.4-0.5-1.7-0.7c-0.3-0.2-1.9-2.5-2.7-3.4c-0.8-0.9-2.4-3.1-2.4-3.1l-0.4-0.9
			l0.1-0.6c0.1-0.1,0.2-0.2,0.3-0.3c0.3-0.3,0.7-0.8,0.9-1c0.3-0.6,0.2,0,0.4-0.3c0.1-0.3,0.7-0.6,0.9-0.7c0.2-0.1,0.6-0.6,0.6-0.6
			s0,0.2,0.1,0.5c0,0,0.2-0.1,0.4-0.4c0.3-0.3,0.2-0.3,0.5-0.7c0.3-0.3,0.5-0.9,0.7-1.3c0.2-0.4,0.3-0.5,0.4-0.6
			c0,0,0.1,0.3,0.2,0.5c0,0,0.2-0.2,0.3-0.4c0.1-0.2,0.1-0.5,0.3-0.7c0.1-0.2,0.2-0.5,0.4-0.6c0.1-0.1,0.4-0.2,0.7-0.2
			c0.2,0,0.5,0.1,0.8,0.2c0.2,0.1,0.4-0.1,0.5,0.2c0.2,0.2,0.4,0.3,0.4,0.3s0,0,0.2-0.1c0.2-0.1,0.2-0.1,0.4-0.2
			c0.2-0.1,0.2-0.2,0.3-0.3c0.2-0.1,0.2-0.3,0.3-0.6c0.1-0.3,0-0.4,0.1-0.5c0.1-0.1,0.4-0.1,0.5-0.4c0.1-0.3,0.1-0.3,0.1-0.4
			c0.1-0.1,0.1-0.3,0.1-0.3s0.4-0.3,0.4-0.5c0-0.2,0.1-0.3,0.2-0.4C110.9,37.3,110.8,36.9,110.3,36.6"/>
		<rect x="55.6" y="74.7" class="st3" width="53.4" height="4"/>
		<rect x="55.6" y="66.7" class="st3" width="53.4" height="4"/>
		<rect x="55.6" y="58.7" class="st3" width="53.4" height="4"/>
	</g>
</g>
</svg>
